<?xml version="1.0" standalone="no"?>
<!DOCTYPE svg PUBLIC "-//W3C//DTD SVG 20010904//EN"
 "http://www.w3.org/TR/2001/REC-SVG-20010904/DTD/svg10.dtd">
<svg version="1.0" xmlns="http://www.w3.org/2000/svg"
 width="1920.000000pt" height="1080.000000pt" viewBox="0 0 1920.000000 1080.000000"
 preserveAspectRatio="xMidYMid meet">
<metadata>
Created by potrace 1.16, written by Peter Selinger 2001-2019
</metadata>
<g transform="translate(0.000000,1080.000000) scale(0.100000,-0.100000)"
fill="#000000" stroke="none">
<path d="M0 8720 l0 -2081 42 33 c23 18 54 43 68 54 14 12 81 68 150 125 112
92 125 105 122 131 -4 33 13 38 21 7 l6 -22 31 24 c17 13 44 36 58 51 15 14
59 50 98 80 40 29 99 76 132 103 90 74 210 168 240 187 15 10 38 27 52 38 64
54 125 100 132 100 5 0 17 8 27 18 10 9 34 29 52 44 19 15 48 38 65 52 18 14
34 26 37 26 3 0 19 12 34 26 30 28 129 94 141 94 4 0 45 23 91 50 61 36 88 47
95 39 12 -12 -26 -49 -50 -49 -8 0 -14 -4 -14 -10 0 -5 -12 -16 -27 -24 -16
-8 -41 -28 -58 -45 -16 -17 -35 -31 -42 -31 -7 0 -26 -12 -42 -27 -17 -16 -42
-37 -56 -48 -15 -11 -33 -26 -40 -32 -8 -7 -18 -13 -23 -13 -6 0 -12 -3 -14
-8 -1 -4 -37 -32 -78 -62 -41 -30 -82 -62 -91 -70 -9 -8 -47 -35 -84 -60 -36
-25 -72 -50 -78 -55 -7 -6 -39 -28 -72 -50 -33 -22 -66 -48 -73 -57 -7 -10
-20 -18 -28 -18 -8 0 -14 -4 -14 -9 0 -5 -15 -16 -33 -24 -36 -17 -97 -72 -97
-86 0 -5 -14 -14 -30 -20 -17 -5 -30 -15 -30 -20 0 -6 -5 -11 -12 -11 -6 0
-29 -17 -51 -37 -95 -91 -115 -104 -147 -96 -20 5 -21 4 -12 -14 9 -15 7 -23
-8 -36 -27 -23 -70 -50 -70 -44 0 3 -15 -9 -34 -26 -19 -18 -64 -52 -100 -77
-36 -25 -78 -55 -94 -68 -15 -13 -42 -30 -59 -39 l-33 -15 0 -453 0 -452 30
-6 c18 -4 30 -13 30 -23 0 -12 -6 -14 -30 -9 -29 6 -30 5 -30 -30 0 -33 2 -35
20 -25 11 6 20 15 20 20 0 6 7 10 15 10 14 0 14 -3 0 -29 -15 -30 -11 -61 7
-61 5 0 6 5 3 10 -3 6 2 10 12 10 11 0 24 5 31 12 9 9 12 7 12 -9 0 -16 -8
-22 -36 -27 -19 -4 -37 -13 -40 -21 -3 -7 -14 -15 -25 -18 -19 -5 -19 -46 -19
-2761 l0 -2756 9600 0 9600 0 0 3121 0 3121 -27 -6 c-80 -16 -125 -18 -121 -4
4 13 34 22 111 33 l37 6 0 1527 0 1527 -160 160 -160 160 0 -587 0 -586 -287
-4 c-159 -2 -424 -1 -590 0 l-303 4 0 385 c0 414 0 413 -52 413 -47 -1 -196
54 -207 75 -5 11 -10 14 -10 8 -1 -7 -8 -13 -16 -13 -19 0 -165 -139 -165
-157 0 -8 -7 -16 -15 -19 -8 -4 -15 -13 -15 -21 0 -8 -4 -11 -10 -8 -5 3 -160
-143 -343 -324 -184 -182 -337 -328 -340 -324 -4 3 -7 252 -7 552 0 300 0 561
0 579 l0 32 -585 0 -585 0 0 494 c0 486 0 495 -20 501 -11 3 -20 12 -20 20 0
7 -10 15 -21 17 -34 5 -47 33 -25 57 21 23 14 61 -12 61 -9 0 -39 -20 -67 -45
-57 -51 -72 -52 -26 0 17 20 31 38 31 40 0 3 -272 5 -605 5 -498 0 -605 -2
-605 -13 0 -8 16 -64 36 -126 42 -135 50 -180 30 -187 -8 -3 -26 2 -40 11 -15
10 -35 15 -48 11 -20 -4 -23 -13 -26 -58 -1 -28 -6 -54 -10 -57 -5 -3 -14 -15
-20 -26 -6 -11 -12 -14 -12 -7 0 6 -8 12 -17 12 -15 0 -99 30 -198 70 -11 5
-28 11 -37 14 -14 4 -16 12 -10 43 10 58 8 116 -4 120 -6 2 -14 -10 -18 -27
-8 -43 -32 -34 -29 11 l2 34 -9 -30 c-5 -16 -14 -79 -19 -138 -11 -129 -22
-152 -19 -41 2 92 -4 153 -18 162 -11 8 -13 92 -3 92 4 0 2 21 -3 46 -8 38 -7
48 8 65 17 19 16 19 -29 19 -40 0 -47 -3 -47 -20 0 -12 -7 -20 -16 -20 -14 0
-14 3 -4 15 7 9 11 18 8 20 -3 3 -711 4 -1574 3 -863 -2 -1560 -7 -1549 -11
65 -27 87 -38 82 -43 -3 -3 -27 4 -52 15 -26 12 -63 21 -81 21 -19 0 -34 5
-34 10 0 6 -38 10 -95 10 -84 0 -94 -2 -88 -17 6 -16 5 -16 -17 0 -23 16 -307
17 -4183 17 l-4158 0 3 -22 c2 -19 -1 -23 -22 -20 -14 1 -51 3 -82 5 -66 3
-91 17 -30 17 22 0 44 5 47 10 4 7 -263 10 -794 10 l-801 0 0 -2080z m11693
1577 c48 -14 87 -23 87 -20 0 3 6 0 14 -7 8 -6 13 -17 10 -25 -3 -7 3 -16 15
-20 12 -4 21 -15 21 -26 0 -25 -27 -79 -40 -79 -6 0 -10 -7 -10 -16 0 -13 -5
-12 -29 5 -16 12 -32 21 -36 21 -3 0 -13 7 -21 15 -8 8 -20 12 -27 10 -7 -3
-23 4 -37 15 -23 17 -24 19 -6 26 16 6 37 1 104 -23 6 -3 12 0 12 5 0 6 -16
14 -35 18 -43 8 -44 18 -5 36 31 13 40 28 17 28 -7 0 -29 9 -50 20 -20 11 -47
20 -60 20 -13 0 -27 4 -32 9 -6 5 -19 12 -30 15 -11 3 -4 4 15 2 19 -2 74 -15
123 -29z m947 -486 c14 -4 36 -5 50 -1 14 3 41 1 60 -6 l35 -11 -52 -8 c-55
-7 -66 -15 -82 -58 -10 -26 -8 -29 34 -49 45 -22 57 -41 31 -51 -10 -4 -13
-17 -9 -46 4 -26 2 -41 -5 -41 -17 0 -42 30 -42 49 0 10 -7 24 -15 31 -12 10
-16 8 -24 -11 -5 -13 -10 -18 -10 -11 -1 6 -19 20 -40 29 -34 15 -41 23 -46
55 -4 21 -11 40 -16 44 -20 12 -8 24 14 12 12 -7 33 -13 47 -14 14 0 32 -4 42
-8 12 -5 18 -1 23 15 6 18 1 29 -24 49 -17 15 -31 30 -31 33 0 9 27 7 60 -2z
m-10499 -99 c15 -9 45 -29 67 -44 22 -15 43 -32 47 -38 9 -15 25 -12 25 4 0
15 29 30 39 20 3 -3 -3 -12 -14 -20 -19 -14 -18 -15 20 -47 43 -36 102 -82
267 -210 156 -122 148 -114 141 -134 -10 -29 -57 -93 -68 -93 -22 0 -122 80
-266 213 -133 123 -152 137 -184 137 -23 0 -48 9 -69 25 -18 14 -38 25 -44 25
-19 0 -69 -32 -227 -141 -82 -58 -192 -133 -243 -168 -92 -61 -94 -62 -114
-44 -26 24 -51 72 -45 87 3 7 97 77 209 156 111 79 231 164 266 189 96 70 145
101 157 101 5 0 22 -8 36 -18z m8915 5 c55 -1 71 -4 67 -14 -3 -7 0 -13 7 -13
6 0 8 -4 5 -10 -3 -5 0 -10 7 -10 8 0 13 -13 14 -35 0 -40 0 -40 -51 -19 -25
10 -34 18 -26 23 16 10 -53 36 -105 39 -22 2 -74 13 -115 27 l-74 24 100 -6
c55 -3 132 -6 171 -6z m2493 -356 c18 -11 5 -31 -20 -31 -10 0 -28 -9 -38 -19
-18 -18 -18 -19 6 -30 13 -6 28 -9 33 -6 14 8 38 -34 33 -56 -5 -19 -7 -19
-24 -3 -18 16 -20 16 -38 0 -16 -15 -19 -15 -24 -1 -4 8 -11 15 -18 15 -6 0
-9 -7 -5 -15 4 -11 -2 -15 -22 -15 -16 0 -33 -5 -40 -12 -9 -9 -12 -7 -12 9 0
16 -5 20 -19 16 -10 -3 -22 0 -25 6 -4 6 -15 11 -25 11 -10 0 -25 7 -32 17 -8
9 -30 23 -49 32 -20 9 -54 31 -75 49 l-40 32 28 0 c16 0 26 -3 24 -7 -3 -5 2
-14 10 -22 13 -12 14 -11 9 6 -6 18 -2 19 56 15 35 -1 97 1 138 6 101 13 152
13 169 3z m-11280 -422 c1 -83 -1 -155 -4 -159 -5 -8 -94 36 -105 52 -3 4 -5
63 -3 130 2 67 3 124 3 125 0 2 24 3 54 3 l54 0 1 -151z m509 -25 c22 -15 30
-58 13 -69 -6 -3 -4 -19 5 -40 17 -43 17 -45 0 -45 -8 0 -21 12 -28 28 -9 18
-22 28 -41 30 -24 3 -27 0 -27 -27 0 -21 -5 -31 -15 -31 -12 0 -15 15 -15 78
0 43 3 82 7 85 12 13 79 7 101 -9z m1020 0 c23 -16 29 -53 12 -70 -8 -8 -8
-19 0 -38 13 -36 13 -46 -4 -46 -8 0 -19 14 -25 30 -7 22 -16 30 -35 30 -19 0
-25 -6 -28 -27 -2 -14 -9 -28 -15 -31 -10 -3 -13 17 -13 76 0 43 3 82 7 85 12
13 79 7 101 -9z m13699 -40 c3 -8 11 -13 19 -10 7 3 25 1 41 -4 15 -5 49 -14
75 -21 26 -6 49 -18 52 -26 10 -25 -5 -93 -20 -93 -8 0 -14 -7 -14 -15 0 -8
-9 -15 -20 -15 -13 0 -18 5 -14 15 5 12 -2 15 -30 15 -20 0 -36 1 -36 3 0 1 4
17 9 35 8 26 7 34 -5 39 -8 3 -21 0 -29 -7 -12 -10 -18 -10 -29 -1 -12 10 -15
7 -19 -21 -4 -29 -5 -31 -12 -11 -4 12 -23 32 -42 43 -40 24 -39 36 1 20 15
-5 25 -7 22 -2 -2 4 2 16 10 27 13 17 16 18 24 5 5 -8 12 -11 17 -7 4 5 -3 17
-17 27 -21 16 -22 20 -7 20 10 0 20 -7 24 -16z m-4864 -89 c21 -20 37 -40 37
-45 0 -5 9 -11 19 -15 11 -3 26 -16 34 -28 23 -35 123 -137 134 -137 6 0 24
-15 41 -34 16 -18 38 -38 48 -44 16 -10 13 -11 -21 -11 -41 0 -150 39 -143 51
1 4 -11 22 -28 40 -33 34 -74 107 -74 130 0 7 -16 26 -35 42 -19 16 -35 34
-35 39 0 5 -10 17 -22 28 -18 14 -19 18 -7 19 9 0 32 -16 52 -35z m-198 -141
c14 -20 91 -26 88 -6 -2 6 7 12 20 13 63 3 83 -4 124 -44 24 -22 42 -41 40
-42 -1 0 -57 2 -124 5 -117 5 -122 6 -142 32 -12 15 -30 30 -41 33 -11 4 -18
11 -15 16 10 14 37 11 50 -7z m2234 -318 c21 -2 28 0 24 10 -4 10 4 14 27 14
36 0 65 -23 56 -46 -6 -16 6 -23 46 -28 13 -1 28 -5 33 -8 6 -3 35 -11 65 -18
30 -7 58 -18 62 -24 5 -7 8 -6 8 3 0 11 3 11 15 1 12 -10 15 -10 16 1 0 10 2
11 6 2 3 -8 23 -13 48 -13 25 0 45 5 48 13 4 9 8 9 15 -2 14 -20 4 -41 -19
-41 -10 0 -19 -4 -19 -10 0 -5 -19 -10 -43 -10 -45 0 -114 31 -109 49 1 6 -10
11 -25 11 -31 -1 -88 -44 -78 -60 4 -7 -9 -9 -36 -5 -40 5 -74 24 -92 53 -4 6
-15 12 -22 12 -8 0 -15 7 -15 15 0 8 -6 15 -14 15 -7 0 -25 9 -39 20 -18 15
-27 17 -30 8 -3 -7 -6 1 -6 18 -1 38 6 46 30 33 10 -5 32 -11 48 -13z m-7146
-218 c-1 -24 -5 -56 -8 -73 -4 -16 -15 -79 -25 -140 -11 -60 -24 -127 -29
-148 -7 -29 -6 -40 4 -43 12 -5 113 1 400 25 50 4 92 6 94 5 32 -24 -218 -58
-434 -59 l-80 0 -3 39 c-2 21 0 46 4 55 4 9 8 23 9 31 1 14 11 71 35 205 5 28
12 71 16 98 8 58 21 62 17 5z m-4872 -984 c9 -11 10 -20 2 -32 -9 -15 -37 -17
-217 -20 l-206 -2 0 -135 0 -134 158 -3 157 -3 3 -24 c2 -13 -2 -28 -10 -32
-7 -5 -79 -9 -160 -9 l-148 0 0 -146 c0 -81 -5 -154 -10 -165 -11 -20 -45 -26
-55 -9 -8 12 -7 709 1 721 3 5 110 9 238 9 201 0 235 -2 247 -16z m2267 4 c20
-20 17 -492 -3 -549 -42 -118 -120 -173 -245 -174 -83 0 -132 19 -184 71 -97
98 -100 268 -4 363 23 24 54 49 70 57 75 39 190 25 264 -32 l45 -34 -2 143
c-1 79 1 149 5 156 9 15 39 14 54 -1z m8350 -135 c1 -79 5 -143 8 -143 3 0 20
11 37 24 50 38 116 52 182 39 142 -30 193 -138 182 -385 -5 -112 -13 -131 -47
-125 -20 3 -28 68 -29 222 -1 141 -15 174 -84 205 -55 26 -110 25 -165 -1 -62
-30 -70 -55 -79 -255 -7 -156 -10 -169 -27 -172 -42 -9 -45 13 -46 365 0 352
3 377 43 371 21 -3 22 -8 25 -145z m3696 131 c3 -9 6 -132 6 -274 0 -275 -3
-290 -50 -275 -20 6 -20 13 -20 279 0 150 3 276 7 279 12 13 51 7 57 -9z
m-4826 -57 c6 -7 12 -49 14 -92 l3 -80 63 -3 c44 -2 65 -7 69 -18 10 -27 -17
-44 -72 -44 -65 0 -65 0 -65 -161 0 -104 2 -119 23 -150 19 -28 32 -36 77 -45
58 -11 74 -30 50 -59 -28 -34 -138 -8 -174 40 -36 47 -46 98 -46 242 l0 132
-42 3 c-38 3 -43 6 -43 28 0 22 5 26 40 30 l40 5 3 80 c3 78 12 105 37 105 7
0 17 -6 23 -13z m-9024 -155 c3 -5 8 -54 12 -110 4 -56 9 -102 12 -102 4 0 25
20 49 46 56 59 55 44 -2 -26 -55 -67 -65 -99 -65 -218 0 -76 -3 -94 -16 -99
-33 -13 -49 11 -55 83 -3 38 -6 64 -7 59 -1 -6 -12 -21 -25 -35 -12 -14 -44
-54 -70 -90 -79 -108 -110 -141 -167 -181 -30 -21 -120 -84 -200 -140 -144
-101 -258 -181 -355 -246 -27 -19 -60 -44 -72 -56 -13 -11 -25 -18 -28 -15
-11 10 141 178 160 178 10 0 135 104 135 112 0 4 7 8 15 8 8 0 15 5 15 10 0 6
4 10 9 10 5 0 26 17 48 38 22 20 65 60 97 87 32 28 66 58 77 68 10 9 22 17 26
17 4 0 25 19 48 43 22 23 66 62 98 87 32 25 72 57 90 71 18 14 40 29 50 32 10
4 16 11 12 17 -3 5 3 18 14 29 18 18 20 18 24 3 3 -9 5 55 6 144 1 110 5 164
13 172 14 14 44 16 52 4z m504 -4 c7 -7 12 -22 12 -35 l0 -22 35 24 c51 34
100 48 155 43 97 -10 175 -71 200 -159 6 -19 10 -102 10 -185 0 -160 -6 -180
-47 -172 -16 3 -18 20 -23 175 -5 186 -9 199 -72 246 -65 48 -196 24 -238 -45
-18 -29 -20 -50 -20 -194 0 -170 -5 -190 -47 -182 -17 3 -18 23 -23 243 -3
132 -2 248 2 258 10 20 39 22 56 5z m2287 -93 c28 -55 71 -144 95 -197 24 -54
47 -98 50 -98 3 0 44 86 91 192 46 105 92 196 102 202 13 8 21 7 33 -6 16 -16
12 -30 -76 -225 -209 -466 -225 -498 -244 -498 -42 0 -40 28 8 134 25 57 46
108 46 116 0 7 -39 93 -86 191 -129 267 -126 261 -107 279 8 9 20 14 27 13 6
-2 34 -49 61 -103z m1059 84 c176 -65 210 -329 58 -444 -131 -101 -312 -59
-391 90 -46 87 -18 238 56 308 68 64 181 83 277 46z m607 -149 c6 -178 14
-209 65 -249 61 -48 181 -35 234 26 l30 34 0 160 c0 91 4 169 10 180 12 21 48
26 55 7 8 -20 12 -450 5 -478 -9 -40 -52 -34 -66 8 -10 32 -11 32 -28 13 -21
-24 -97 -51 -141 -51 -53 0 -128 28 -163 60 -18 16 -37 30 -43 30 -5 0 -8 3
-7 8 1 4 -4 25 -10 47 -13 43 -17 357 -5 369 4 4 19 6 33 4 l25 -3 6 -165z
m887 133 c3 -31 16 -44 24 -24 2 4 22 20 45 35 74 46 181 33 171 -21 -3 -15
-16 -19 -74 -23 -79 -6 -114 -24 -144 -73 -18 -28 -20 -49 -19 -189 2 -159 -4
-188 -36 -188 -32 0 -36 28 -35 259 0 126 3 237 6 246 4 10 16 15 33 13 21 -2
27 -9 29 -35z m1200 25 c7 -7 12 -20 12 -31 0 -18 1 -18 28 0 47 33 81 43 140
43 69 0 128 -25 165 -70 51 -60 57 -88 57 -272 0 -147 -2 -169 -16 -175 -9 -3
-24 -2 -33 4 -13 8 -17 38 -21 174 -3 101 -10 172 -17 185 -52 91 -184 108
-266 34 l-32 -28 -3 -175 c-4 -190 -8 -205 -57 -193 -25 6 -25 7 -27 124 -3
141 3 374 9 385 7 11 48 8 61 -5z m1120 -4 c80 -33 143 -123 146 -207 l1 -52
-202 -3 c-196 -2 -203 -3 -203 -23 0 -36 40 -98 79 -125 30 -20 51 -25 99 -25
85 -1 92 5 78 61 -7 25 -16 56 -20 69 -5 15 -5 21 2 17 6 -3 16 -29 23 -56 8
-31 18 -50 27 -50 11 0 13 8 7 36 -6 34 -5 35 9 21 9 -8 16 -23 16 -31 0 -9 7
-16 15 -16 8 0 20 -10 26 -22 10 -19 8 -25 -20 -47 -17 -14 -31 -32 -31 -38 0
-16 -17 -17 -22 -2 -3 9 -14 9 -42 -1 -24 -8 -59 -10 -93 -6 -144 17 -231 126
-221 275 11 149 101 239 241 241 26 0 64 -7 85 -16z m607 -85 c42 -55 81 -99
85 -97 5 2 41 45 80 96 40 52 79 96 86 99 17 6 44 -14 44 -32 0 -7 -36 -57
-80 -113 -44 -55 -80 -103 -80 -107 0 -4 36 -55 80 -113 83 -109 95 -144 53
-150 -16 -2 -34 14 -76 70 -31 40 -69 88 -84 107 l-29 34 -84 -107 c-64 -82
-88 -106 -104 -104 -42 6 -28 41 59 152 55 70 82 113 77 120 -145 186 -160
207 -155 226 3 13 14 20 28 20 17 0 42 -25 100 -101z m3051 73 c55 -28 110
-92 125 -144 6 -24 12 -72 12 -108 0 -57 -4 -71 -32 -112 -40 -59 -95 -105
-141 -118 -136 -38 -286 31 -325 151 -22 66 -16 168 13 224 27 53 78 101 127
120 56 21 168 14 221 -13z m594 2 l10 -26 35 22 c75 46 173 35 230 -26 l23
-24 30 28 c65 61 176 66 250 11 67 -49 75 -95 73 -391 -1 -68 -3 -77 -21 -83
-44 -14 -50 6 -50 177 0 180 -9 215 -62 248 -43 26 -84 25 -125 -2 -53 -37
-62 -75 -62 -253 1 -86 -3 -160 -8 -165 -18 -16 -61 -20 -66 -5 -5 13 -6 82
-3 265 1 94 -47 188 -85 164 -5 -3 -9 0 -9 5 0 15 -45 14 -85 -3 -64 -27 -70
-49 -71 -245 0 -153 -2 -176 -17 -185 -12 -8 -22 -8 -34 0 -16 10 -18 35 -21
236 -1 133 2 237 8 252 13 35 47 35 60 0z m1386 3 c69 -35 114 -102 127 -184
12 -75 19 -73 -204 -73 -218 0 -212 2 -185 -61 15 -36 56 -79 93 -98 36 -18
134 -13 178 9 48 25 71 25 80 3 13 -36 -98 -93 -180 -93 -88 0 -177 51 -220
125 -37 62 -48 174 -23 226 10 21 18 42 18 48 0 19 101 99 137 110 49 13 142
7 179 -12z m2152 -1123 c27 8 47 -15 66 -74 10 -30 22 -63 27 -72 7 -14 2 -21
-27 -33 -20 -8 -37 -15 -38 -15 -1 0 -3 12 -4 26 -1 15 -7 33 -13 40 -6 7 -8
23 -4 36 6 22 5 22 -9 5 -14 -18 -15 -18 -26 3 -7 12 -10 31 -7 41 3 10 1 17
-4 13 -13 -8 -11 13 3 39 11 20 13 20 16 4 2 -11 10 -16 20 -13z m-13139
-1235 c54 -11 138 -60 148 -85 3 -8 -2 -23 -11 -32 -15 -15 -21 -14 -79 18
-56 32 -69 35 -142 35 -70 0 -87 -4 -134 -30 -96 -53 -161 -166 -161 -279 0
-99 69 -210 161 -261 46 -26 65 -30 129 -30 66 0 84 4 142 34 70 35 98 35 98
2 0 -61 -143 -119 -267 -108 -84 8 -156 42 -216 102 -117 117 -147 285 -77
433 76 160 235 239 409 201z m609 -11 c8 -8 12 -55 12 -145 l0 -132 36 24
c100 68 227 55 302 -30 52 -59 62 -104 62 -278 0 -154 -7 -176 -49 -162 -18 5
-20 17 -23 175 -3 152 -5 171 -24 196 -33 45 -70 67 -122 72 -65 6 -114 -11
-152 -54 l-30 -35 0 -168 c0 -180 -5 -200 -50 -186 -20 6 -20 12 -20 365 0
277 3 359 13 363 21 9 32 8 45 -5z m2509 0 c4 -7 6 -111 4 -230 -2 -120 1
-218 5 -218 5 0 36 25 69 56 152 140 203 184 213 184 6 0 17 -10 23 -22 10
-19 7 -26 -27 -57 -22 -19 -67 -61 -101 -92 l-62 -58 99 -123 c55 -68 99 -129
98 -137 -2 -8 -11 -19 -21 -25 -20 -12 -12 -19 -146 144 -41 49 -77 90 -80 90
-4 0 -21 -14 -38 -30 -32 -29 -33 -32 -33 -114 0 -77 -2 -85 -20 -91 -49 -16
-50 -7 -50 364 0 257 3 350 12 359 16 16 45 15 55 0z m2573 -67 c5 -11 10 -54
10 -95 l0 -75 63 -3 c59 -3 62 -4 62 -28 0 -24 -3 -25 -62 -28 l-63 -3 0 -140
c0 -185 12 -208 120 -221 20 -2 25 -8 25 -33 0 -30 0 -30 -57 -30 -42 0 -65 6
-84 21 -67 50 -84 109 -84 290 l0 114 -34 0 c-37 0 -62 21 -52 45 3 10 19 15
46 15 l40 0 0 76 c0 83 11 114 40 114 11 0 24 -9 30 -19z m-3942 -165 c78 -40
138 -140 130 -218 l-3 -33 -204 -3 -203 -2 6 -33 c8 -39 52 -96 94 -120 45
-26 129 -25 184 2 53 25 74 27 82 5 8 -22 -4 -36 -56 -62 -88 -44 -201 -37
-275 17 -82 59 -120 187 -89 295 21 72 91 147 152 164 51 15 143 8 182 -12z
m807 5 c60 -27 107 -70 103 -95 -5 -33 -35 -30 -92 9 -43 29 -63 37 -99 37
-107 0 -177 -79 -177 -196 1 -64 30 -118 86 -155 45 -29 54 -32 109 -28 33 3
76 13 97 22 20 10 43 15 52 12 25 -10 19 -41 -11 -63 -58 -43 -136 -54 -218
-33 -22 6 -49 12 -59 13 -24 3 -70 57 -96 111 -46 95 -32 228 33 302 66 75
186 104 272 64z m1637 -11 c58 -27 103 -85 125 -159 49 -168 -73 -331 -248
-331 -97 0 -178 47 -225 132 -25 46 -29 63 -29 128 1 122 57 206 165 244 59
21 151 15 212 -14z m572 24 c14 -5 16 -29 16 -162 0 -189 12 -227 86 -263 79
-38 189 -12 227 54 7 14 14 83 17 191 4 143 8 170 22 179 12 8 21 7 32 -2 14
-12 16 -46 16 -251 0 -205 -2 -239 -16 -251 -21 -17 -48 0 -52 34 l-3 26 -36
-25 c-59 -40 -105 -49 -175 -36 -68 13 -114 40 -147 87 -35 51 -41 90 -41 250
0 168 6 187 54 169z m2335 -24 c91 -46 135 -120 135 -230 1 -85 -18 -132 -76
-189 -56 -55 -84 -66 -178 -66 -75 0 -91 3 -132 28 -146 86 -173 293 -52 413
74 75 206 94 303 44z m579 18 c8 -8 12 -59 12 -162 0 -131 3 -155 21 -192 36
-76 137 -105 226 -65 71 33 77 51 83 244 4 144 8 171 22 180 12 8 21 7 32 -2
14 -12 16 -46 16 -251 0 -205 -2 -239 -16 -251 -21 -18 -47 0 -54 36 -4 24 -7
26 -18 13 -7 -9 -36 -26 -64 -38 -43 -18 -62 -21 -112 -15 -98 10 -166 61
-194 144 -17 48 -16 358 1 364 21 9 32 8 45 -5z m898 -26 c9 -28 12 -31 23
-19 20 24 98 57 135 57 37 0 86 -18 86 -31 0 -31 -14 -39 -71 -39 -67 0 -114
-16 -144 -50 -18 -20 -21 -40 -25 -202 -4 -152 -8 -183 -21 -191 -9 -6 -24 -7
-33 -4 -14 6 -16 34 -16 255 0 137 3 252 7 256 17 17 48 0 59 -32z m-7118
-1055 c7 -8 11 -84 12 -211 0 -139 3 -203 12 -213 8 -11 9 -16 1 -21 -7 -4
-12 -39 -12 -84 0 -88 13 -112 69 -126 30 -7 35 -12 35 -38 0 -27 -3 -29 -39
-32 -53 -5 -91 14 -118 57 -22 35 -23 43 -25 334 -1 165 2 310 7 323 10 26 41
32 58 11z m5442 -13 c6 -14 10 -130 10 -259 0 -240 -6 -285 -38 -285 -40 0
-42 14 -42 285 0 190 3 264 12 273 20 20 48 14 58 -14z m-3622 -46 c7 -7 12
-44 12 -95 l0 -83 64 0 c52 0 65 -3 71 -17 4 -13 -2 -25 -22 -40 -29 -24 -49
-30 -38 -13 4 6 -10 10 -34 10 l-41 0 0 -137 c0 -120 3 -142 20 -171 21 -35
54 -52 100 -52 33 0 49 -32 29 -57 -18 -21 -102 -12 -137 14 -68 51 -81 97
-82 276 l0 127 -32 0 c-42 0 -61 12 -56 36 2 14 13 20 46 22 l42 3 0 83 c0 79
9 106 35 106 6 0 16 -5 23 -12z m-1272 -163 c4 -8 11 -12 17 -8 7 4 8 0 2 -13
-5 -10 -10 -118 -12 -238 -3 -216 -8 -246 -38 -246 -31 0 -35 29 -37 262 0
129 2 240 6 247 10 16 56 14 62 -4z m690 4 c80 -20 147 -106 91 -117 -10 -2
-36 9 -58 23 -111 78 -269 21 -204 -73 10 -13 38 -28 73 -37 145 -39 161 -46
191 -81 85 -96 -9 -224 -164 -224 -62 0 -141 27 -180 61 -29 26 -33 34 -25 50
14 25 48 24 76 -2 51 -48 193 -56 234 -13 57 60 18 112 -106 139 -156 35 -200
77 -181 176 17 85 130 129 253 98z m1202 -246 c2 -249 2 -252 -19 -258 -12 -4
-26 -2 -33 5 -13 13 -17 465 -3 493 5 11 17 17 30 15 22 -3 22 -5 25 -255z
m500 245 c5 -7 12 -23 14 -35 3 -22 3 -22 46 7 99 66 245 40 311 -55 35 -51
41 -90 41 -251 0 -126 -3 -154 -16 -165 -11 -9 -20 -10 -32 -2 -14 8 -18 35
-22 174 -6 194 -15 219 -87 251 -81 36 -188 10 -226 -55 -7 -14 -14 -83 -17
-191 -4 -143 -8 -170 -22 -179 -12 -8 -21 -7 -32 2 -14 12 -16 46 -16 250 0
237 3 261 36 261 6 0 16 -6 22 -12z m1180 -20 c51 -24 100 -87 119 -151 19
-62 17 -290 -3 -357 -22 -76 -100 -152 -172 -169 -93 -23 -189 1 -257 63 -37
35 -44 56 -21 75 11 10 21 6 49 -19 144 -126 347 -47 347 136 0 19 -2 34 -4
34 -2 0 -21 -18 -43 -39 -58 -59 -135 -75 -227 -47 -107 32 -167 120 -167 244
0 84 22 141 74 191 75 71 205 88 305 39z m809 8 c55 -26 87 -63 77 -90 -9 -24
-39 -19 -86 14 -33 24 -51 30 -94 30 -90 0 -126 -31 -110 -94 7 -27 39 -41
161 -72 92 -23 145 -71 145 -131 0 -88 -85 -154 -195 -152 -105 1 -210 54
-203 102 4 32 31 32 79 0 34 -22 56 -28 114 -31 65 -4 74 -2 103 23 69 58 30
109 -108 142 -135 32 -191 85 -176 166 7 38 57 90 101 105 55 19 136 14 192
-12z"/>
<path d="M4584 6831 c-129 -60 -138 -255 -15 -332 91 -59 222 -25 266 67 41
86 14 205 -57 255 -44 32 -137 37 -194 10z"/>
<path d="M6768 6827 c-75 -46 -110 -129 -89 -213 16 -62 36 -90 87 -120 50
-30 135 -35 181 -11 117 61 139 233 41 324 -52 49 -157 59 -220 20z"/>
<path d="M10620 6842 c-47 -21 -100 -87 -100 -124 0 -16 15 -18 165 -18 164 0
165 0 165 23 0 32 -35 84 -72 107 -33 20 -124 27 -158 12z"/>
<path d="M14235 6835 c-71 -31 -110 -104 -103 -193 7 -104 81 -172 184 -172
111 0 176 65 182 181 4 60 1 74 -22 113 -44 75 -156 109 -241 71z"/>
<path d="M16212 6820 c-23 -17 -42 -35 -42 -40 0 -19 -2 -25 -16 -45 -8 -11
-14 -23 -14 -27 0 -5 77 -8 170 -8 190 0 187 -2 150 69 -28 56 -74 81 -147 81
-51 0 -66 -5 -101 -30z"/>
<path d="M7035 4250 c-63 -14 -116 -64 -130 -122 l-7 -28 171 0 c193 0 191 -1
148 74 -35 62 -108 93 -182 76z"/>
<path d="M9407 4230 c-85 -46 -121 -164 -77 -255 12 -25 38 -58 58 -73 31 -24
44 -27 112 -27 68 0 81 3 112 27 47 36 72 90 72 158 0 68 -25 122 -72 158 -48
36 -149 42 -205 12z"/>
<path d="M12320 4231 c-19 -10 -48 -37 -65 -60 -26 -37 -30 -51 -30 -110 0
-57 4 -74 28 -109 74 -113 247 -110 314 6 54 92 21 227 -67 272 -51 26 -133
27 -180 1z"/>
<path d="M10787 2929 c-59 -31 -92 -89 -92 -163 0 -105 54 -177 147 -194 56
-11 129 6 165 39 101 93 72 282 -50 328 -45 17 -128 12 -170 -10z"/>
<path d="M13690 10789 c0 -6 -11 -24 -25 -41 -14 -16 -25 -38 -25 -49 0 -24
-16 -25 -29 -1 -9 16 -11 16 -38 0 -15 -9 -29 -21 -31 -26 -5 -15 109 -47 117
-33 4 6 15 9 23 6 11 -4 18 1 23 15 4 12 21 43 38 68 l32 47 5 -58 c5 -57 21
-81 28 -42 5 23 22 45 22 27 0 -7 5 -12 10 -12 6 0 10 11 10 25 0 16 -6 25
-15 25 -8 0 -15 9 -15 20 0 11 7 20 15 20 8 0 15 5 15 10 0 6 -33 10 -80 10
-52 0 -80 -4 -80 -11z"/>
<path d="M16522 10228 l3 -573 65 1 c36 1 74 1 85 1 308 0 803 1 810 2 6 0 39
-1 75 -4 l65 -6 -40 16 c-22 8 -55 15 -74 15 -29 0 -32 2 -21 15 7 8 18 15 24
16 6 0 21 13 34 30 l23 29 -58 61 c-87 92 -193 194 -206 198 -7 2 -2 -7 9 -20
12 -13 25 -34 29 -47 3 -12 11 -20 16 -17 5 4 6 -8 2 -27 -6 -32 -36 -66 -99
-114 -38 -30 -47 -30 -39 -3 4 12 8 27 9 33 1 6 5 17 9 23 13 21 -48 50 -126
61 -40 6 -75 8 -78 4 -3 -4 -12 -40 -19 -79 -7 -40 -15 -73 -18 -73 -3 0 -22
18 -43 40 -21 22 -47 40 -59 40 -19 0 -19 1 -3 20 10 11 21 20 25 20 4 0 18
10 31 23 13 12 40 37 59 55 19 17 39 32 45 32 5 0 23 12 40 28 17 15 49 42 72
61 30 25 38 38 32 49 -17 31 -654 662 -668 662 -11 0 -13 -93 -11 -572z m646
-339 c23 -8 32 -17 32 -32 0 -26 -25 -136 -33 -143 -3 -3 -31 2 -63 10 -31 8
-61 13 -65 10 -14 -8 -14 18 0 98 l15 80 41 -6 c22 -4 55 -11 73 -17z"/>
<path d="M17700 10263 c0 -296 3 -555 6 -575 l7 -38 583 0 584 0 0 575 0 575
-590 0 -590 0 0 -537z"/>
<path d="M19043 9808 l-153 -153 152 -3 c83 -1 153 -1 155 1 2 2 2 73 1 156
l-3 152 -152 -153z"/>
</g>
</svg>
