<?xml version="1.0" standalone="no"?>
<!DOCTYPE svg PUBLIC "-//W3C//DTD SVG 20010904//EN"
 "http://www.w3.org/TR/2001/REC-SVG-20010904/DTD/svg10.dtd">
<svg version="1.0" xmlns="http://www.w3.org/2000/svg"
 width="1024.000000pt" height="683.000000pt" viewBox="0 0 1024.000000 683.000000"
 preserveAspectRatio="xMidYMid meet">

<g transform="translate(0.000000,683.000000) scale(0.100000,-0.100000)"
fill="#000000" stroke="none">
<path d="M90 6806 c0 -18 7 -25 31 -30 44 -9 49 -8 49 8 0 16 -42 46 -65 46
-9 0 -15 -9 -15 -24z"/>
<path d="M212 6802 c-14 -15 -21 -30 -17 -42 5 -16 10 -17 35 -8 32 11 39 34
18 59 -11 14 -16 12 -36 -9z"/>
<path d="M461 6821 c-7 -5 -9 -11 -4 -14 6 -4 19 0 29 8 15 11 16 14 4 15 -8
0 -21 -4 -29 -9z"/>
<path d="M590 6819 c0 -5 -4 -8 -9 -4 -16 9 -24 -16 -10 -31 10 -9 26 -12 51
-8 l37 6 -29 24 c-31 26 -40 29 -40 13z"/>
<path d="M755 6820 c-3 -5 -2 -10 4 -10 5 0 13 5 16 10 3 6 2 10 -4 10 -5 0
-13 -4 -16 -10z"/>
<path d="M5820 6814 c0 -14 3 -14 15 -4 8 7 15 14 15 16 0 2 -7 4 -15 4 -8 0
-15 -7 -15 -16z"/>
<path d="M6140 6821 c0 -15 -59 -41 -78 -35 -14 5 -14 3 2 -10 18 -15 18 -16
-1 -58 -20 -40 -20 -43 -3 -81 10 -21 20 -39 24 -40 4 -1 17 16 29 38 12 22
23 42 24 44 5 8 14 -6 18 -28 5 -28 14 -41 26 -41 9 0 7 141 -3 203 -2 17 -38
25 -38 8z"/>
<path d="M6335 6819 c-11 -17 1 -21 15 -4 8 9 8 15 2 15 -6 0 -14 -5 -17 -11z"/>
<path d="M6385 6814 c11 -8 26 -12 33 -9 8 3 22 5 33 5 10 0 19 5 19 10 0 6
-24 10 -52 10 -49 -1 -52 -2 -33 -16z"/>
<path d="M7816 6815 c4 -8 8 -15 10 -15 2 0 4 7 4 15 0 8 -4 15 -10 15 -5 0
-7 -7 -4 -15z"/>
<path d="M7906 6815 c4 -8 8 -15 10 -15 2 0 4 7 4 15 0 8 -4 15 -10 15 -5 0
-7 -7 -4 -15z"/>
<path d="M10020 6805 c-8 -20 -6 -45 6 -94 9 -36 19 -68 21 -71 3 -3 3 28 0
69 -3 47 -1 81 6 93 14 21 32 24 24 4 -4 -10 -1 -13 9 -9 8 3 23 -2 34 -12 22
-20 40 -12 40 18 0 21 -5 23 -65 25 -62 3 -65 2 -75 -23z"/>
<path d="M10218 6823 c7 -3 16 -2 19 1 4 3 -2 6 -13 5 -11 0 -14 -3 -6 -6z"/>
<path d="M9135 6812 c-33 -7 -38 -19 -11 -26 16 -4 28 -16 32 -31 3 -14 12
-25 20 -25 16 0 19 26 4 35 -6 4 -8 15 -5 25 6 20 -9 28 -40 22z"/>
<path d="M9597 6813 c-12 -12 -7 -22 8 -17 8 4 15 10 15 15 0 11 -14 12 -23 2z"/>
<path d="M6250 6792 c0 -9 7 -26 15 -36 8 -10 12 -24 9 -30 -4 -6 5 3 20 19
25 29 34 51 18 41 -5 -3 -20 1 -35 9 -24 12 -27 12 -27 -3z"/>
<path d="M10 6791 c0 -6 5 -13 11 -16 6 -4 8 -13 5 -21 -3 -9 1 -14 13 -14 21
0 22 20 2 44 -15 18 -31 21 -31 7z"/>
<path d="M695 6780 c3 -5 14 -10 23 -10 15 0 15 2 2 10 -20 13 -33 13 -25 0z"/>
<path d="M9496 6755 c-34 -31 -33 -38 3 -30 17 3 32 2 36 -4 10 -18 25 -13 25
8 0 11 5 23 10 26 19 12 10 25 -19 25 -16 0 -39 -10 -55 -25z"/>
<path d="M9924 6759 c-15 -16 -16 -22 -5 -29 8 -4 11 -15 8 -23 -10 -27 5 -27
27 1 24 30 26 42 13 60 -13 17 -21 15 -43 -9z"/>
<path d="M79 6737 c6 -8 7 -17 3 -21 -4 -4 1 -13 11 -21 16 -12 16 -13 -3 -18
-32 -8 -26 -39 7 -35 19 2 27 9 28 25 1 12 -5 25 -12 27 -8 3 -13 11 -12 18 3
27 -2 38 -17 38 -13 0 -14 -3 -5 -13z"/>
<path d="M1095 6740 c-4 -7 -2 -16 6 -21 18 -11 23 -4 11 17 -7 12 -11 13 -17
4z"/>
<path d="M1140 6736 c0 -8 5 -18 10 -21 6 -3 10 3 10 14 0 12 -4 21 -10 21 -5
0 -10 -6 -10 -14z"/>
<path d="M9013 6717 c-27 -12 -30 -25 -8 -33 20 -8 19 -31 -2 -43 -17 -10 -16
-10 2 -11 39 0 49 15 39 58 -8 36 -11 39 -31 29z"/>
<path d="M748 6710 c-10 -31 3 -50 33 -48 35 3 37 15 5 28 -13 5 -26 15 -28
22 -4 10 -6 9 -10 -2z"/>
<path d="M9404 6699 c-19 -21 -19 -21 6 -18 14 2 26 12 28 22 5 23 -11 22 -34
-4z"/>
<path d="M10225 6697 c-4 -10 -5 -21 -1 -24 10 -10 18 4 13 24 -4 17 -4 17
-12 0z"/>
<path d="M302 6683 c-6 -10 -7 -25 -2 -32 6 -11 11 -8 20 9 8 15 9 25 2 32 -7
7 -14 4 -20 -9z"/>
<path d="M577 6694 c-12 -12 -8 -51 6 -63 16 -13 27 -5 27 19 0 21 -24 53 -33
44z"/>
<path d="M9508 6640 c-18 -32 -12 -38 14 -17 10 7 13 19 9 29 -5 15 -9 13 -23
-12z"/>
<path d="M8720 6641 c0 -22 25 -39 38 -27 8 8 -10 38 -26 44 -7 2 -12 -6 -12
-17z"/>
<path d="M9304 6644 c3 -9 6 -20 6 -26 0 -6 6 -6 15 2 22 18 18 40 -6 40 -15
0 -19 -4 -15 -16z"/>
<path d="M8520 6634 c0 -8 5 -12 10 -9 6 4 8 11 5 16 -9 14 -15 11 -15 -7z"/>
<path d="M10138 6633 c-16 -8 -28 -18 -28 -24 0 -12 7 -11 30 1 13 7 21 7 25
0 10 -17 28 -11 21 7 -4 9 -1 20 6 25 23 14 -25 7 -54 -9z"/>
<path d="M750 6628 c0 -19 14 -30 44 -33 11 -1 24 -3 29 -4 4 0 7 -12 7 -26 0
-18 4 -23 15 -19 9 4 15 19 15 36 0 22 -4 29 -14 25 -8 -3 -20 1 -27 9 -9 11
-15 12 -26 2 -12 -10 -18 -9 -29 7 -12 16 -14 16 -14 3z"/>
<path d="M8601 6622 c-15 -29 2 -45 22 -21 17 19 15 39 -3 39 -5 0 -14 -8 -19
-18z"/>
<path d="M9101 6635 c-1 -10 34 -45 44 -45 3 0 5 9 5 19 0 24 -20 38 -30 21
-6 -10 -9 -9 -13 1 -3 8 -6 9 -6 4z"/>
<path d="M9740 6619 c0 -5 5 -7 10 -4 6 3 10 8 10 11 0 2 -4 4 -10 4 -5 0 -10
-5 -10 -11z"/>
<path d="M10218 6605 c-10 -13 -18 -33 -18 -44 0 -28 -8 -26 -41 5 -28 26 -28
27 -63 10 -32 -15 -34 -19 -25 -42 8 -22 7 -25 -6 -20 -9 3 -15 0 -15 -9 0 -7
13 -16 30 -20 19 -4 29 -12 28 -23 -3 -36 3 -52 18 -52 19 0 74 50 74 67 0 6
9 15 20 18 17 5 20 15 20 71 0 35 -1 64 -2 64 -2 0 -11 -11 -20 -25z m-93
-101 c23 -9 -1 -23 -27 -16 -15 4 -17 7 -6 13 16 11 13 10 33 3z"/>
<path d="M565 6610 c-3 -5 -1 -10 4 -10 6 0 11 5 11 10 0 6 -2 10 -4 10 -3 0
-8 -4 -11 -10z"/>
<path d="M6344 6595 c-11 -18 -14 -29 -7 -36 7 -7 14 0 22 22 14 41 7 48 -15
14z"/>
<path d="M6427 6603 c-12 -11 -8 -68 5 -81 7 -7 20 -12 30 -12 21 0 67 -26 85
-48 10 -11 14 -9 27 16 9 17 21 32 27 34 7 2 7 11 -2 31 -15 33 -20 33 -48 3
-25 -26 -51 -25 -51 3 0 19 -39 61 -56 61 -6 0 -14 -3 -17 -7z"/>
<path d="M9017 6595 c-18 -13 -18 -15 -2 -39 10 -14 21 -26 26 -26 9 0 33 51
27 54 -2 1 -10 7 -18 13 -11 9 -20 8 -33 -2z"/>
<path d="M5852 6580 c-6 -17 -6 -27 2 -32 16 -10 29 19 17 40 -9 15 -11 14
-19 -8z"/>
<path d="M6200 6574 c-6 -14 -7 -36 -4 -49 3 -13 0 -33 -6 -45 -15 -28 -4 -39
14 -15 12 16 16 17 30 6 14 -12 16 -10 16 17 0 17 3 37 6 45 4 11 -2 16 -18
19 -17 2 -22 8 -20 26 4 30 -6 28 -18 -4z"/>
<path d="M7719 6593 c-21 -5 -43 -53 -30 -66 5 -5 18 -6 30 -2 16 5 21 15 21
41 0 19 -1 33 -2 33 -2 -1 -10 -3 -19 -6z"/>
<path d="M8682 6588 c-14 -14 2 -38 24 -38 18 0 18 24 1 39 -10 8 -17 7 -25
-1z"/>
<path d="M9472 6587 c-7 -8 -14 -27 -16 -43 -2 -16 -1 -23 1 -16 2 6 12 12 20
12 9 0 13 3 10 7 -4 3 -2 12 5 20 7 9 8 17 1 24 -7 7 -14 5 -21 -4z"/>
<path d="M498 6583 c-15 -4 -15 -7 0 -49 20 -53 48 -62 38 -11 -4 17 -8 40 -9
50 -1 9 -4 16 -7 16 -3 -1 -13 -3 -22 -6z"/>
<path d="M8837 6572 c-21 -23 -22 -42 -3 -42 8 0 17 12 20 26 9 34 3 39 -17
16z"/>
<path d="M300 6570 c0 -5 5 -10 11 -10 5 0 7 5 4 10 -3 6 -8 10 -11 10 -2 0
-4 -4 -4 -10z"/>
<path d="M9990 6560 c0 -5 5 -10 11 -10 5 0 7 5 4 10 -3 6 -8 10 -11 10 -2 0
-4 -4 -4 -10z"/>
<path d="M471 6542 c-1 -8 -6 -10 -13 -6 -10 5 -10 4 -1 -6 15 -16 28 -8 20
12 -4 11 -6 11 -6 0z"/>
<path d="M386 6525 c4 -8 8 -15 10 -15 2 0 4 7 4 15 0 8 -4 15 -10 15 -5 0 -7
-7 -4 -15z"/>
<path d="M6705 6530 c3 -5 8 -10 11 -10 2 0 4 5 4 10 0 6 -5 10 -11 10 -5 0
-7 -4 -4 -10z"/>
<path d="M6777 6520 c-26 -13 -28 -19 -23 -55 7 -58 56 -90 56 -37 0 15 5 33
10 38 7 7 6 20 -2 40 -13 29 -14 30 -41 14z"/>
<path d="M9156 6513 c-8 -21 -8 -22 14 -16 28 8 33 20 11 26 -12 3 -22 -1 -25
-10z"/>
<path d="M9920 6510 c0 -25 16 -44 25 -30 4 7 0 19 -9 28 -13 14 -16 14 -16 2z"/>
<path d="M6431 6454 c-11 -30 -11 -41 0 -60 16 -31 29 -31 29 1 0 14 5 34 12
44 9 15 9 23 -1 35 -19 23 -25 20 -40 -20z"/>
<path d="M825 6440 c4 -6 11 -8 16 -5 14 9 11 15 -7 15 -8 0 -12 -5 -9 -10z"/>
<path d="M6146 6424 c-4 -11 -13 -14 -26 -10 -68 21 -64 21 -56 -10 9 -34 25
-47 43 -33 7 6 17 8 23 4 5 -3 10 1 10 10 0 8 7 18 15 21 8 4 15 12 15 20 0
19 -16 18 -24 -2z"/>
<path d="M10186 6418 c-16 -57 -17 -103 -2 -123 14 -19 15 -15 16 48 0 64 4
73 33 68 4 0 7 6 7 15 0 13 -3 14 -13 5 -9 -7 -17 -7 -24 0 -7 7 -12 3 -17
-13z"/>
<path d="M7627 6410 c-6 -24 8 -36 17 -14 8 22 7 34 -3 34 -5 0 -11 -9 -14
-20z"/>
<path d="M507 6404 c-4 -4 -7 -14 -7 -23 0 -11 3 -12 11 -4 6 6 10 16 7 23 -2
6 -7 8 -11 4z"/>
<path d="M8875 6391 c-9 -30 6 -50 17 -21 5 14 5 27 -1 33 -5 5 -12 1 -16 -12z"/>
<path d="M9960 6400 c0 -5 5 -10 10 -10 6 0 10 5 10 10 0 6 -4 10 -10 10 -5 0
-10 -4 -10 -10z"/>
<path d="M6290 6342 c-20 -16 -20 -52 1 -52 4 0 17 -10 29 -22 24 -26 29 -22
40 28 14 61 -22 84 -70 46z"/>
<path d="M6516 6352 c-2 -4 -1 -14 5 -22 7 -12 9 -10 9 8 0 23 -5 28 -14 14z"/>
<path d="M6235 6340 c3 -5 8 -10 11 -10 2 0 4 5 4 10 0 6 -5 10 -11 10 -5 0
-7 -4 -4 -10z"/>
<path d="M7716 6318 c-9 -12 -16 -37 -16 -55 0 -28 4 -33 24 -33 14 0 33 -11
44 -25 11 -14 23 -25 26 -25 14 0 4 38 -14 55 -12 11 -18 25 -14 34 11 29 12
46 1 59 -14 18 -34 15 -51 -10z"/>
<path d="M6055 6310 c-7 -11 45 -52 59 -47 6 2 11 12 11 22 0 14 -10 21 -33
26 -18 4 -35 3 -37 -1z"/>
<path d="M6700 6286 c0 -9 5 -16 10 -16 6 0 10 4 10 9 0 6 -4 13 -10 16 -5 3
-10 -1 -10 -9z"/>
<path d="M8593 6246 c-1 -35 2 -45 7 -31 11 26 12 72 3 78 -5 3 -9 -18 -10
-47z"/>
<path d="M5855 6258 c14 -47 17 -76 6 -82 -17 -11 -13 -59 10 -120 23 -60 36
-70 41 -33 2 16 10 22 28 22 20 0 27 -7 36 -40 l12 -40 16 40 c9 22 21 48 27
58 6 10 7 32 4 48 -8 34 -29 37 -73 12 -29 -17 -31 -17 -51 1 -28 26 -26 44 5
52 26 7 27 7 6 23 -11 9 -27 31 -36 49 -19 37 -42 44 -31 10z"/>
<path d="M6180 6241 c-15 -28 -12 -48 6 -55 22 -8 26 -3 31 39 4 40 -18 50
-37 16z"/>
<path d="M6382 6242 c-9 -7 -9 -18 4 -55 9 -26 19 -49 24 -52 4 -3 15 17 24
43 14 43 14 48 -1 60 -19 14 -33 15 -51 4z"/>
<path d="M6686 6232 c-3 -6 1 -12 9 -16 8 -3 15 -15 15 -26 0 -12 7 -28 16
-37 9 -10 14 -29 12 -51 -5 -53 18 -51 30 3 8 40 7 52 -12 88 -22 41 -57 60
-70 39z"/>
<path d="M6636 6191 c-4 -7 -5 -15 -2 -18 9 -9 19 4 14 18 -4 11 -6 11 -12 0z"/>
<path d="M6510 6150 c-11 -7 -12 -12 -4 -20 8 -8 14 -7 23 4 14 17 1 28 -19
16z"/>
<path d="M9257 6113 c-5 -7 -12 -36 -17 -65 -5 -29 -12 -63 -16 -75 -4 -13 -2
-23 4 -23 12 0 45 130 40 157 -2 13 -6 14 -11 6z"/>
<path d="M3443 6093 c-7 -2 -13 -13 -13 -23 0 -21 -82 -180 -158 -305 -30 -49
-74 -124 -97 -165 -23 -41 -54 -97 -70 -125 -15 -27 -43 -76 -61 -108 -33 -56
-38 -97 -13 -113 5 -2 11 -28 15 -55 l7 -51 266 3 c146 1 279 0 296 -2 28 -4
30 -2 41 46 7 28 20 77 29 110 17 59 17 60 -5 77 -16 13 -40 18 -81 18 -49 0
-60 3 -70 21 -14 26 -8 148 16 375 21 196 16 289 -18 298 -26 7 -67 7 -84 -1z"/>
<path d="M10215 6080 c-3 -5 1 -10 10 -10 9 0 13 5 10 10 -3 6 -8 10 -10 10
-2 0 -7 -4 -10 -10z"/>
<path d="M10087 6063 c-3 -5 -1 -17 4 -28 7 -17 8 -17 8 8 1 27 -4 34 -12 20z"/>
<path d="M5705 6034 c-15 -15 -15 -18 1 -35 20 -23 34 -24 34 -5 0 8 6 16 13
19 9 3 9 7 -2 20 -17 21 -25 21 -46 1z"/>
<path d="M6520 6008 c0 -30 1 -31 16 -16 9 9 14 24 11 32 -11 27 -27 17 -27
-16z"/>
<path d="M9935 5990 c3 -5 8 -10 11 -10 2 0 4 5 4 10 0 6 -5 10 -11 10 -5 0
-7 -4 -4 -10z"/>
<path d="M8786 5975 c5 -12 4 -16 -3 -12 -6 4 -13 0 -17 -8 -7 -19 17 -20 33
-1 9 10 8 16 -4 26 -13 11 -14 10 -9 -5z"/>
<path d="M6770 5936 c0 -31 14 -40 40 -26 29 16 21 44 -13 48 -23 3 -27 0 -27
-22z"/>
<path d="M9521 5923 c-6 -22 -7 -41 -1 -48 5 -6 10 -31 12 -55 2 -34 7 -46 21
-48 14 -3 17 1 12 21 -5 19 -2 25 13 29 10 3 29 19 41 37 17 23 18 29 6 25
-11 -5 -20 5 -33 35 -23 55 -57 57 -71 4z"/>
<path d="M9950 5940 c0 -5 -7 -10 -15 -10 -15 0 -38 -34 -29 -43 12 -12 54 19
54 41 0 12 -2 22 -5 22 -3 0 -5 -4 -5 -10z"/>
<path d="M9820 5887 c0 -41 14 -50 24 -15 3 14 -1 29 -9 38 -13 13 -15 10 -15
-23z"/>
<path d="M5995 5847 c-4 -10 -3 -23 4 -30 16 -16 26 0 14 25 -10 21 -11 22
-18 5z"/>
<path d="M5910 5842 c0 -18 -42 -52 -64 -52 -19 -1 -19 -2 -3 -11 20 -12 23
-49 5 -68 -11 -11 -9 -13 12 -7 14 3 28 6 33 6 4 0 7 11 7 25 0 37 13 31 48
-24 30 -45 31 -52 25 -114 -7 -76 3 -97 47 -97 23 0 29 5 34 31 14 73 7 102
-34 149 -23 24 -38 50 -35 58 3 7 -1 25 -9 40 -17 32 -66 80 -66 64z"/>
<path d="M10041 5770 c-14 -27 -22 -52 -19 -55 3 -3 32 -10 64 -15 32 -5 64
-16 72 -23 8 -9 14 -39 14 -82 2 -76 -12 -95 -64 -95 -21 0 -32 -7 -40 -26
-14 -30 0 -44 44 -44 17 0 33 -8 40 -20 7 -11 22 -20 34 -20 29 0 48 -25 38
-47 -4 -10 -8 -23 -9 -28 0 -6 -8 -27 -18 -48 -18 -37 -18 -38 5 -57 13 -11
26 -19 31 -20 4 0 6 141 5 313 l-3 312 -85 3 -85 2 -24 -50z"/>
<path d="M9750 5795 c-11 -13 -8 -15 13 -15 19 0 25 4 21 15 -4 8 -10 15 -14
15 -4 0 -13 -7 -20 -15z"/>
<path d="M9873 5798 c-16 -20 -24 -76 -12 -84 19 -12 137 -16 143 -5 4 5 4 22
0 36 -6 24 -8 25 -24 10 -17 -15 -20 -14 -42 17 -25 36 -50 46 -65 26z"/>
<path d="M4027 5790 c-201 -5 -220 -7 -233 -24 -10 -14 -12 -32 -7 -60 4 -23
8 -53 8 -68 0 -16 3 -28 6 -28 9 0 19 27 19 49 0 10 12 28 26 42 25 23 31 24
210 27 l184 3 25 -25 c22 -22 25 -34 25 -96 0 -44 -7 -93 -20 -130 -11 -33
-23 -102 -27 -153 -3 -50 -12 -104 -20 -119 -17 -34 -17 -32 1 -66 20 -38 20
-189 0 -219 -14 -22 -19 -23 -198 -23 -155 0 -186 2 -197 16 -9 11 -12 43 -10
106 2 72 7 96 22 118 19 25 20 29 5 64 -11 27 -15 66 -14 135 1 93 -14 181
-31 181 -5 0 -12 -28 -16 -62 -4 -35 -14 -81 -22 -103 -11 -29 -17 -102 -20
-257 -7 -257 -8 -254 77 -243 30 4 268 8 529 10 261 3 478 8 482 12 10 10 23
574 14 603 -7 23 -7 22 -26 -6 -14 -22 -19 -55 -23 -134 -4 -106 -20 -164 -43
-155 -7 2 -13 0 -13 -6 0 -6 -5 -7 -12 -3 -6 4 -8 3 -5 -4 4 -5 16 -8 27 -5
13 4 20 0 20 -10 0 -8 6 -20 14 -26 16 -14 16 -176 -1 -206 -11 -19 -23 -20
-198 -21 -149 -1 -189 2 -201 13 -27 27 -14 198 17 231 16 17 16 22 3 47 -9
18 -15 64 -15 139 -1 68 -7 127 -16 151 -11 29 -13 62 -8 122 10 118 16 122
181 128 168 6 246 -4 279 -35 30 -28 35 -24 42 31 10 70 12 69 -326 67 -163
-1 -394 -5 -514 -8z"/>
<path d="M6344 5786 c-3 -8 -4 -27 -2 -43 3 -30 0 -29 133 -52 33 -6 70 -8 81
-5 19 5 21 11 17 47 -3 23 -10 48 -16 55 -14 18 -206 17 -213 -2z"/>
<path d="M6605 5789 c-4 -6 -4 -30 -1 -53 l7 -43 104 -13 c58 -6 107 -15 110
-20 6 -9 -118 -20 -259 -21 -61 -1 -123 -4 -138 -8 -23 -5 -25 -8 -14 -24 13
-17 53 -18 687 -18 371 0 680 0 687 0 17 1 17 182 0 199 -9 9 -130 12 -482 12
-414 0 -471 -2 -487 -16 -16 -14 -20 -14 -43 2 -25 15 -28 15 -45 0 -22 -20
-35 -20 -51 -1 -14 17 -66 20 -75 4z m315 -128 c0 -4 -13 -8 -29 -7 -16 1 -27
4 -24 9 6 10 53 9 53 -2z m476 -3 c3 -4 -31 -7 -76 -7 -44 0 -80 5 -80 10 0
11 149 8 156 -3z m97 0 c-6 -12 -83 -10 -83 2 0 5 20 8 44 7 24 -1 42 -5 39
-9z"/>
<path d="M9671 5745 c-7 -25 -22 -57 -33 -71 -11 -14 -18 -28 -14 -31 3 -4 -5
-26 -19 -50 -21 -34 -23 -43 -10 -43 10 0 15 -11 16 -37 1 -26 3 -30 6 -14 4
19 10 22 32 19 33 -5 55 16 48 44 -4 14 0 22 14 25 16 5 18 11 13 39 -3 18 -2
39 2 46 5 7 9 23 9 34 0 12 7 29 14 38 8 9 11 20 7 23 -4 4 -11 1 -16 -7 -7
-12 -13 -11 -32 8 l-24 22 -13 -45z m4 -144 c3 -5 1 -12 -5 -16 -5 -3 -10 1
-10 9 0 18 6 21 15 7z"/>
<path d="M6160 5751 c0 -17 5 -31 10 -31 6 0 10 11 10 24 0 14 -4 28 -10 31
-6 4 -10 -7 -10 -24z"/>
<path d="M8590 5721 c0 -19 22 -23 38 -7 15 15 14 16 -11 16 -15 0 -27 -4 -27
-9z"/>
<path d="M9511 5717 c-16 -16 -13 -42 7 -60 21 -19 37 -11 44 24 3 19 -1 28
-18 36 -16 7 -26 7 -33 0z"/>
<path d="M8492 5688 c-7 -7 -3 -18 11 -34 27 -32 34 -30 29 5 -4 32 -23 46
-40 29z"/>
<path d="M110 5665 c0 -8 4 -15 10 -15 5 0 7 7 4 15 -4 8 -8 15 -10 15 -2 0
-4 -7 -4 -15z"/>
<path d="M9454 5608 c-4 -13 0 -26 11 -37 15 -15 16 -15 9 2 -3 10 -1 17 5 17
16 0 13 27 -3 33 -9 4 -17 -2 -22 -15z"/>
<path d="M8540 5582 c1 -28 30 -72 49 -72 16 0 14 15 -4 30 -8 7 -15 23 -15
35 0 13 -7 25 -15 29 -11 4 -15 -2 -15 -22z"/>
<path d="M6285 5530 c-4 -6 -14 -9 -23 -8 -12 2 -17 -6 -19 -29 -2 -25 5 -41
27 -65 l30 -33 -12 34 c-9 29 -8 36 5 46 18 13 23 50 8 60 -5 3 -13 1 -16 -5z"/>
<path d="M8316 5533 c-12 -12 -6 -43 9 -43 8 0 15 9 15 19 0 21 -13 34 -24 24z"/>
<path d="M8983 5518 c-5 -7 -13 -21 -16 -30 -4 -10 -13 -18 -22 -18 -8 0 -15
-5 -15 -10 0 -7 6 -8 17 -1 14 7 24 3 46 -21 26 -26 27 -31 14 -46 -8 -9 -18
-27 -21 -39 -4 -13 -15 -23 -24 -23 -13 0 -13 -2 4 -15 45 -34 103 -9 104 45
0 14 7 34 15 44 8 11 15 35 15 53 0 32 -1 33 -39 33 -29 0 -44 6 -54 20 -11
16 -16 18 -24 8z"/>
<path d="M8221 5504 c0 -11 3 -14 6 -6 3 7 2 16 -1 19 -3 4 -6 -2 -5 -13z"/>
<path d="M9917 5455 c-20 -28 -18 -30 18 -13 14 6 24 16 22 22 -6 19 -22 15
-40 -9z"/>
<path d="M5943 5448 c-14 -32 -6 -68 15 -68 8 0 24 -7 34 -16 16 -16 18 -16
24 0 12 31 -4 66 -30 66 -18 0 -26 6 -28 22 -3 22 -3 21 -15 -4z"/>
<path d="M8062 5433 c5 -25 28 -28 28 -4 0 12 -6 21 -16 21 -9 0 -14 -7 -12
-17z"/>
<path d="M9526 5423 c2 -10 0 -24 -5 -32 -8 -12 -12 -12 -25 -2 -9 8 -16 20
-16 29 0 8 -3 12 -7 8 -4 -3 -6 -24 -5 -46 2 -32 -2 -45 -23 -64 -33 -31 -50
-88 -35 -116 9 -17 7 -27 -9 -54 -21 -33 -15 -56 16 -56 20 0 39 -39 53 -107
9 -42 9 -67 3 -75 -6 -7 -12 -24 -15 -38 l-4 -25 270 -4 c149 -2 326 -6 393
-10 l123 -6 0 69 c0 61 -8 85 -14 44 -3 -21 -44 -88 -54 -88 -5 0 -15 7 -22
15 -7 8 -23 15 -36 15 -27 0 -40 34 -30 76 7 26 6 26 -41 22 -26 -3 -57 -8
-67 -13 -13 -6 -17 -5 -12 3 4 7 -6 12 -26 14 -26 2 -39 -3 -61 -26 -26 -27
-28 -28 -52 -12 -27 18 -49 12 -75 -18 -7 -9 -23 -16 -36 -16 -29 0 -53 42
-60 108 l-6 47 59 28 c61 28 130 36 150 16 5 -5 43 -10 84 -11 87 -1 115 -9
124 -37 8 -26 32 -28 37 -4 2 10 10 18 18 19 8 1 28 2 43 2 17 1 26 6 21 13
-3 6 -17 8 -31 4 -16 -4 -22 -2 -18 5 3 5 -2 13 -12 17 -10 4 -21 11 -25 17
-5 8 -13 7 -28 -1 -29 -19 -34 -17 -80 27 -23 22 -44 40 -46 40 -3 0 -21 -16
-41 -36 -34 -34 -37 -36 -50 -18 -7 10 -13 27 -13 38 0 37 -29 129 -42 137
-33 21 -48 10 -48 -34 0 -24 -6 -51 -13 -62 -13 -17 -16 -15 -47 30 -29 42
-35 46 -45 32 -7 -10 -19 -17 -27 -17 -16 0 -38 40 -38 68 0 19 -42 102 -52
102 -3 0 -4 -8 -2 -17z"/>
<path d="M6090 5412 c0 -10 -7 -27 -15 -38 -15 -20 -21 -109 -7 -118 18 -11
52 25 52 55 0 16 5 37 11 47 9 15 8 24 -6 45 -20 31 -35 35 -35 9z"/>
<path d="M9653 5423 c-18 -6 -16 -40 1 -46 17 -7 29 19 19 37 -5 7 -14 11 -20
9z"/>
<path d="M5874 5224 c-4 -14 -17 -30 -32 -35 -24 -9 -24 -10 -7 -29 12 -13 25
-18 41 -14 19 5 25 0 37 -29 24 -56 35 -53 39 10 3 52 0 61 -26 91 -34 39 -44
40 -52 6z"/>
<path d="M8951 5219 c-12 -13 -21 -31 -21 -41 0 -10 -9 -27 -20 -38 -10 -10
-15 -22 -10 -25 11 -7 90 13 91 23 0 4 3 18 6 32 15 69 -7 91 -46 49z"/>
<path d="M8296 5205 c-16 -12 -17 -17 -6 -30 10 -12 9 -21 -4 -49 -13 -27 -14
-40 -5 -65 14 -39 29 -40 29 -2 0 16 8 52 17 80 14 45 14 54 2 66 -12 12 -17
12 -33 0z"/>
<path d="M4510 5190 c-8 -5 -18 -6 -23 -3 -12 7 -57 -6 -57 -17 0 -5 8 -9 18
-8 9 0 26 -2 38 -5 27 -7 47 6 42 26 -2 12 -7 14 -18 7z"/>
<path d="M9015 5170 c3 -5 8 -10 11 -10 2 0 4 5 4 10 0 6 -5 10 -11 10 -5 0
-7 -4 -4 -10z"/>
<path d="M8470 5121 c0 -6 5 -13 10 -16 6 -3 10 1 10 9 0 9 -4 16 -10 16 -5 0
-10 -4 -10 -9z"/>
<path d="M5775 5085 c-3 -8 -7 -22 -10 -30 -2 -9 2 -15 10 -15 10 0 15 10 15
30 0 32 -8 40 -15 15z"/>
<path d="M9008 5093 c-23 -6 -22 -14 2 -61 22 -42 90 -85 90 -57 0 8 9 19 20
25 24 13 16 38 -16 46 -14 4 -27 16 -30 30 -6 24 -24 28 -66 17z"/>
<path d="M5945 5026 c-3 -9 -7 -22 -9 -29 -2 -8 0 -20 5 -28 8 -12 12 -11 24
5 19 25 19 40 0 56 -12 10 -16 9 -20 -4z"/>
<path d="M8220 4997 c0 -21 8 -41 20 -52 19 -17 22 -18 37 -2 16 15 15 18 0
35 -9 10 -17 26 -17 35 0 10 -8 17 -20 17 -16 0 -20 -7 -20 -33z"/>
<path d="M10224 4999 c-3 -6 -1 -16 5 -22 8 -8 11 -5 11 11 0 24 -5 28 -16 11z"/>
<path d="M2650 4905 c0 -8 3 -15 8 -16 4 0 36 -2 72 -4 36 -2 76 -7 90 -11 30
-7 212 -13 223 -7 4 3 45 6 90 9 113 5 246 20 282 32 21 7 -88 11 -367 11
-348 1 -398 -1 -398 -14z"/>
<path d="M8935 4730 c3 -5 10 -10 16 -10 5 0 9 5 9 10 0 6 -7 10 -16 10 -8 0
-12 -4 -9 -10z"/>
<path d="M2643 4668 c-73 -6 -133 -14 -133 -18 0 -5 -12 -23 -26 -40 -15 -18
-23 -35 -18 -39 5 -5 36 -18 70 -30 63 -22 126 -27 207 -16 51 8 54 4 37 -40
-6 -15 -8 -30 -5 -35 3 -4 33 1 67 12 35 11 93 21 129 22 50 2 74 8 98 25 29
21 42 22 245 25 118 2 219 7 225 11 6 3 42 2 79 -4 47 -7 79 -7 107 0 36 10
451 23 650 21 44 0 114 -1 155 -1 113 1 2559 1 2605 1 22 0 81 0 130 1 50 0
106 0 125 -1 19 -1 221 0 448 1 347 2 409 1 387 -10 -14 -8 -25 -18 -25 -23 0
-6 -5 -10 -12 -10 -7 0 -31 -21 -54 -47 l-42 -48 -148 -3 c-138 -3 -264 -4
-439 -4 -38 0 -104 -1 -145 -1 -41 -1 -93 0 -115 2 -22 1 -103 -1 -180 -4
-122 -5 -585 -8 -685 -4 -19 0 -120 -2 -225 -5 -156 -4 -200 -2 -248 11 -32 9
-61 12 -65 8 -4 -4 -1 -10 6 -12 17 -6 15 -23 -3 -23 -9 0 -15 9 -15 25 0 14
-8 29 -19 35 -30 15 -107 12 -121 -5 -7 -8 -8 -15 -3 -15 5 0 10 -7 10 -15 0
-8 -4 -15 -9 -15 -4 0 -8 6 -8 14 0 27 -84 35 -116 11 -10 -8 -27 -15 -36 -15
-10 0 -18 -6 -18 -14 0 -10 -10 -13 -37 -10 -198 21 -292 23 -643 15 -47 -2
-105 1 -130 6 -25 5 -56 6 -70 2 -42 -12 -125 -10 -166 4 -32 11 -49 12 -94 1
-30 -7 -59 -10 -64 -6 -6 3 -181 7 -391 8 -295 2 -393 -1 -440 -12 -76 -18
-145 -18 -170 0 -11 7 -31 12 -45 10 -122 -14 -213 -16 -236 -3 -20 10 -38 11
-95 1 -90 -16 -130 -15 -153 3 -28 21 -33 20 -163 -32 l-118 -48 -417 -5
c-315 -4 -420 -8 -430 -17 -6 -7 -22 -13 -35 -13 -15 0 -23 -6 -23 -17 0 -17
16 -18 220 -15 190 3 221 2 226 -12 9 -22 -18 -71 -41 -73 -11 -1 -55 -5 -97
-8 -53 -5 -78 -11 -78 -19 0 -10 26 -13 104 -12 96 1 106 -1 129 -22 20 -19
25 -20 30 -8 9 22 77 37 186 41 92 3 96 4 99 27 8 48 29 59 110 54 46 -3 81
-10 89 -19 8 -8 21 -57 28 -111 9 -63 20 -105 34 -124 11 -16 25 -60 31 -98
15 -94 29 -144 40 -144 6 0 10 5 10 10 0 23 29 8 49 -25 35 -60 84 -44 122 40
20 43 25 105 9 105 -6 0 -9 3 -9 8 4 23 -5 32 -38 38 -53 9 -65 17 -122 76
-41 43 -51 60 -51 88 0 25 6 39 21 48 19 12 20 15 5 31 -21 23 -20 34 2 54 16
15 20 15 39 2 19 -13 29 -13 75 -1 29 7 93 14 141 15 49 1 125 6 170 11 79 9
141 4 236 -20 35 -9 225 -5 296 7 45 7 271 7 385 0 41 -3 107 -1 145 4 100 14
1095 17 1095 4 0 -6 -7 -37 -15 -70 -17 -64 -14 -120 11 -234 13 -60 47 -127
116 -230 29 -43 59 -154 45 -167 -4 -4 -13 -1 -21 5 -14 11 -236 24 -236 14 0
-2 23 -36 50 -75 54 -77 64 -120 31 -138 -26 -14 -38 -13 -23 2 19 19 15 26
-18 33 -16 4 -33 13 -38 20 -10 20 -26 7 -51 -42 -26 -51 -33 -55 -19 -10 11
37 -3 87 -26 87 -9 0 -12 7 -9 20 7 25 -12 27 -22 3 -14 -34 -11 -64 7 -74 10
-6 16 -14 12 -20 -3 -5 -1 -15 4 -22 6 -7 10 -44 9 -84 -1 -75 12 -107 40 -96
8 3 19 0 24 -8 7 -11 9 -11 9 2 0 25 -30 92 -48 105 -11 8 -12 13 -4 18 7 4
23 -4 36 -19 l25 -26 11 21 c6 12 9 28 6 36 -5 12 1 13 32 7 114 -23 197 35
213 147 l6 45 2 -45 c1 -67 -6 -84 -55 -121 -24 -18 -44 -36 -44 -41 0 -15 98
-57 171 -74 80 -18 128 -38 69 -28 l-35 6 25 -21 25 -21 -25 -1 c-20 -1 -19
-3 10 -9 19 -5 56 -12 82 -15 29 -4 56 -15 73 -30 27 -26 33 -28 78 -25 15 1
27 -3 27 -8 0 -6 7 -12 14 -15 10 -4 13 -1 9 9 -3 7 -1 14 5 14 6 0 13 -6 15
-12 4 -8 6 -7 6 4 1 9 4 18 9 21 4 2 1 2 -5 1 -7 -2 -13 1 -13 7 0 6 -26 9
-65 7 -35 -1 -67 1 -71 5 -4 4 31 7 77 7 58 0 79 3 69 10 -8 5 -10 10 -4 10 7
0 9 11 6 25 -4 21 -1 25 21 25 38 0 48 20 41 84 -5 39 -3 56 5 56 6 0 11 -8
11 -18 0 -23 70 -49 81 -30 4 6 12 8 18 4 12 -8 57 18 87 51 12 12 24 20 27
17 10 -10 20 41 21 109 1 37 -2 67 -7 67 -10 0 -24 39 -32 90 -3 23 -10 52
-14 64 -4 11 -9 44 -10 71 -3 56 -8 66 -21 45 -7 -10 -10 -11 -10 -2 0 6 9 21
20 32 17 17 18 24 9 41 -6 12 -19 24 -29 26 -10 3 -20 17 -22 32 -3 23 -1 27
14 23 24 -6 34 23 14 43 -16 17 -22 46 -8 43 20 -4 88 17 99 31 10 14 6 17
-30 21 -23 3 -50 2 -59 -2 -22 -11 -38 18 -38 69 0 21 -4 43 -8 50 -7 12 -49
29 -162 64 -59 19 -89 40 -90 63 0 4 7 6 15 3 8 -4 17 -2 19 2 5 7 61 8 108 2
4 -1 32 -22 63 -47 56 -45 56 -45 118 -40 77 7 229 7 597 1 359 -6 299 -6 815
-1 242 2 451 6 465 8 22 3 25 -1 28 -30 2 -18 7 -30 13 -27 5 4 6 -24 2 -69
-4 -53 -3 -76 5 -76 15 0 35 38 27 50 -3 6 -1 10 4 10 16 0 13 16 -5 34 -24
24 -13 142 20 209 29 61 83 108 97 86 5 -8 9 -24 9 -36 0 -17 20 -37 70 -74
74 -53 117 -103 112 -130 -2 -9 4 -19 13 -23 11 -4 14 -2 9 7 -5 6 8 0 27 -14
42 -33 49 -56 17 -64 -14 -4 -24 -14 -25 -26 -2 -23 10 -25 30 -4 8 8 17 11
21 8 3 -4 6 -1 6 5 0 6 13 -3 30 -19 24 -24 28 -34 20 -49 -7 -13 -6 -20 2
-22 8 -3 13 -29 14 -69 2 -61 -9 -95 -27 -84 -4 3 -16 1 -26 -4 -23 -12 -56
-24 -64 -23 -3 0 -18 -10 -34 -24 -33 -28 -47 -31 -44 -6 1 9 1 24 0 32 -1 12
-3 13 -10 1 -5 -7 -6 -22 -3 -33 6 -23 -38 -72 -85 -95 -24 -11 -33 -22 -33
-40 0 -16 -4 -22 -12 -17 -8 5 -9 2 -5 -9 3 -10 3 -17 -2 -17 -4 0 -11 -26
-15 -57 -19 -179 -24 -211 -30 -222 -4 -6 -1 -11 6 -11 10 0 10 -2 -1 -9 -7
-5 -11 -14 -7 -20 4 -6 -2 -18 -14 -28 -11 -10 -20 -23 -20 -29 0 -7 -24 -33
-52 -58 -29 -25 -49 -46 -45 -46 22 0 107 46 109 59 3 14 5 13 11 -2 5 -13 1
-20 -16 -26 -12 -5 -21 -11 -19 -15 4 -11 -22 -46 -36 -46 -7 0 -15 -7 -19
-16 -3 -9 -15 -20 -27 -24 -21 -9 -21 -9 0 -9 11 -1 41 12 67 29 47 29 47 29
47 7 0 -13 5 -28 11 -34 8 -8 6 -28 -5 -73 -9 -35 -14 -65 -12 -67 2 -3 7 10
11 27 4 17 9 29 12 26 10 -9 -18 -76 -29 -70 -7 4 -8 2 -4 -5 9 -15 -3 -53
-15 -46 -5 3 -6 0 -3 -8 3 -8 -6 -35 -20 -60 -15 -25 -26 -52 -26 -59 0 -20
-45 -111 -63 -130 -18 -17 -13 -53 6 -41 6 4 8 0 4 -10 -7 -20 -3 -21 24 -7
13 8 19 7 19 0 0 -6 4 -9 9 -6 12 8 23 -173 19 -320 -3 -118 -2 -121 17 -114
17 6 19 15 17 53 -3 38 1 51 20 70 25 25 48 80 48 114 0 56 11 52 86 -30 41
-45 80 -97 86 -114 7 -18 16 -33 21 -33 4 0 5 -5 1 -11 -3 -6 -17 -8 -31 -4
-41 10 -22 -17 30 -43 26 -12 47 -27 47 -31 0 -4 -21 -4 -47 0 -27 4 -86 8
-133 8 -68 -1 -79 -3 -55 -10 17 -5 49 -12 72 -14 62 -7 93 -22 93 -44 0 -13
15 -25 54 -41 30 -12 57 -28 60 -36 6 -15 96 -21 96 -6 0 5 -19 40 -43 78
-106 169 -159 265 -158 286 3 127 35 280 63 299 5 3 13 41 18 85 9 85 23 130
63 209 14 28 28 64 31 80 4 17 18 44 32 60 l25 30 -8 -85 c-11 -114 -7 -433 6
-495 9 -42 9 -32 5 62 -15 330 8 575 54 566 7 -2 12 6 12 16 0 11 5 23 10 26
6 4 8 11 4 16 -7 12 46 62 114 109 51 35 56 44 77 143 9 47 85 235 103 257 15
19 24 20 90 14 56 -5 72 -10 68 -21 -4 -11 0 -10 24 2 20 10 59 15 127 15 54
0 108 3 121 6 23 7 22 8 -19 50 -52 53 -41 71 43 65 20 -1 68 -78 68 -108 0
-14 18 -34 49 -56 76 -55 219 -240 278 -357 30 -62 38 -89 43 -160 4 -61 14
-106 36 -160 38 -91 46 -126 84 -355 17 -99 35 -194 41 -212 l10 -32 95 -3 94
-3 0 743 0 742 -24 -15 c-30 -20 -42 -5 -41 52 1 23 -2 40 -6 38 -3 -3 -195
-5 -425 -6 -250 0 -426 -5 -437 -11 -14 -7 -17 -16 -12 -40 l7 -31 -35 27
c-61 47 -141 174 -170 271 -8 28 -21 67 -30 87 -24 57 -5 68 108 63 50 -3 263
-7 475 -11 305 -5 391 -10 413 -21 23 -12 31 -12 44 -1 9 7 39 12 74 11 l59
-1 0 69 c0 38 -6 85 -14 104 -8 18 -12 36 -9 39 4 3 6 22 5 41 -1 19 3 37 8
40 6 3 10 31 10 62 l0 56 -142 -7 c-79 -4 -297 -7 -484 -8 l-342 -1 -6 -45
c-10 -72 -11 -70 37 -58 23 6 48 15 55 19 11 7 188 1 252 -9 13 -2 27 2 31 8
10 15 197 -6 279 -31 52 -16 90 -39 90 -55 0 -10 -107 -17 -144 -9 -21 5 -84
5 -139 0 -56 -4 -122 -4 -151 2 -32 5 -71 5 -106 -1 -71 -13 -144 -14 -197 -4
l-43 9 0 -35 c0 -43 -14 -62 -65 -88 -50 -26 -54 -25 -65 6 -14 35 -30 21 -30
-27 0 -25 -5 -39 -13 -39 -14 0 -16 2 -88 114 -32 48 -72 94 -105 120 -48 36
-54 45 -54 77 0 44 -16 53 -59 32 -28 -14 -39 -14 -89 -3 -31 8 -68 13 -82 13
-77 -2 -180 -12 -189 -17 -6 -4 -20 -2 -32 5 -17 8 -604 12 -2348 13 l-2326 2
-40 24 -40 25 -415 1 c-228 1 -475 -3 -547 -8z m2772 -308 c3 -5 1 -10 -4 -10
-6 0 -11 5 -11 10 0 6 2 10 4 10 3 0 8 -4 11 -10z m-3179 -127 c18 -26 1 -47
-40 -50 -42 -2 -50 7 -41 48 6 28 10 31 37 25 17 -3 37 -14 44 -23z m124 -27
c0 -2 -9 -6 -20 -9 -11 -3 -20 -1 -20 4 0 5 9 9 20 9 11 0 20 -2 20 -4z m6303
-286 c3 -34 2 -47 -3 -35 -8 19 -14 103 -6 94 2 -2 6 -29 9 -59z m1027 -171
c0 -6 -7 -12 -15 -15 -8 -4 -15 -12 -15 -20 0 -18 -34 -36 -54 -28 -31 12 -10
68 29 76 26 5 55 -2 55 -13z m-4160 -39 c0 -5 -5 -10 -11 -10 -5 0 -7 5 -4 10
3 6 8 10 11 10 2 0 4 -4 4 -10z m3234 -29 c3 -5 -4 -20 -15 -35 -19 -24 -18
-31 5 -27 5 1 13 -4 17 -11 7 -10 9 -9 9 4 0 9 -5 20 -10 23 -8 5 -7 11 0 20
13 16 57 4 53 -13 -2 -6 6 -14 17 -17 13 -4 20 -15 20 -32 0 -22 -2 -24 -15
-13 -9 7 -19 9 -23 5 -4 -4 -1 -10 6 -12 6 -3 10 -9 6 -14 -3 -5 1 -9 8 -9 8
0 21 -16 30 -36 10 -22 12 -34 5 -31 -7 2 -18 -3 -26 -11 -12 -12 -15 -12 -23
2 -5 9 -18 16 -28 16 -10 0 -22 5 -25 10 -3 6 -11 10 -17 10 -6 0 -4 -8 5 -18
10 -11 13 -22 7 -31 -4 -8 -6 -20 -3 -28 7 -17 3 -16 -38 3 -55 25 -64 31 -61
44 2 7 -5 9 -18 5 -15 -5 -26 -1 -35 11 -7 11 -11 22 -9 25 2 4 -3 12 -11 19
-7 6 -11 18 -8 26 3 8 0 15 -6 15 -10 1 -16 3 -36 8 -3 0 3 10 12 20 18 21 58
14 58 -10 0 -8 7 -14 15 -15 35 -2 41 -5 35 -14 -3 -5 -2 -10 3 -10 5 0 15 14
22 31 11 26 11 32 -1 40 -11 7 -9 9 7 9 28 0 35 9 23 31 -8 16 -6 19 15 19 14
0 27 -4 30 -9z m33 -255 c-7 -13 -15 -22 -19 -20 -10 6 2 34 14 34 5 0 6 5 2
12 -4 6 -3 8 4 5 7 -5 7 -14 -1 -31z m23 -6 c0 -5 -5 -10 -11 -10 -5 0 -7 5
-4 10 3 6 8 10 11 10 2 0 4 -4 4 -10z m-3740 -20 c0 -5 -2 -10 -4 -10 -3 0 -8
5 -11 10 -3 6 -1 10 4 10 6 0 11 -4 11 -10z m3784 -15 c3 -8 1 -15 -4 -15 -5
0 -6 -7 -3 -17 4 -11 3 -14 -5 -9 -8 4 -12 0 -13 -11 0 -15 -2 -14 -12 5 -8
19 -8 25 4 33 12 7 12 9 -1 9 -13 0 -13 1 0 10 21 13 27 12 34 -5z m-119 -123
c0 -18 -20 -15 -23 4 -3 10 1 15 10 12 7 -3 13 -10 13 -16z m-118 -99 c-3 -10
-5 -4 -5 12 0 17 2 24 5 18 2 -7 2 -21 0 -30z m-440 -185 c-3 -8 -6 -5 -6 6
-1 11 2 17 5 13 3 -3 4 -12 1 -19z m-76 -271 c-10 -9 -11 -8 -5 6 3 10 9 15
12 12 3 -3 0 -11 -7 -18z"/>
<path d="M2385 4560 c-3 -5 -2 -10 4 -10 5 0 13 5 16 10 3 6 2 10 -4 10 -5 0
-13 -4 -16 -10z"/>
<path d="M8210 4259 c-30 -12 -90 -68 -90 -84 0 -6 9 -21 20 -32 10 -12 22
-33 26 -48 6 -24 10 -26 37 -21 34 7 114 55 141 85 17 19 17 20 -4 31 -12 6
-46 14 -76 17 -30 3 -57 9 -59 14 -9 14 53 20 92 10 47 -14 53 -14 53 0 0 13
-62 39 -92 38 -13 0 -34 -5 -48 -10z"/>
<path d="M4670 4150 c0 -6 11 -8 26 -4 17 4 29 2 35 -7 4 -7 11 -10 16 -6 4 5
1 12 -7 17 -20 13 -70 13 -70 0z"/>
<path d="M4850 4138 c-14 -6 -83 -12 -154 -14 -153 -4 -180 -13 -195 -66 -7
-21 -17 -38 -23 -38 -5 0 -8 -9 -5 -20 3 -11 1 -20 -4 -20 -5 0 -9 -7 -9 -15
0 -8 -4 -15 -9 -15 -4 0 -6 -12 -4 -27 4 -26 3 -26 -10 -10 -8 9 -19 17 -26
17 -8 0 -8 6 1 20 7 11 18 20 24 20 7 0 14 9 17 21 7 27 -19 36 -43 14 -13
-12 -27 -15 -45 -11 -14 4 -35 1 -48 -5 -33 -17 -67 -51 -61 -60 3 -5 1 -9 -4
-9 -6 0 -13 -16 -16 -35 -4 -20 -11 -33 -17 -29 -6 3 -8 12 -5 20 3 8 3 14 1
14 -13 0 -65 -55 -71 -74 -13 -44 -39 -92 -60 -111 -22 -20 -38 -75 -23 -75 5
0 9 -7 9 -15 0 -18 -20 -20 -20 -2 0 6 -5 4 -11 -7 -9 -14 -8 -20 1 -26 13 -8
-59 -89 -107 -121 l-25 -16 27 -7 c22 -6 25 -9 15 -21 -10 -12 -10 -18 0 -30
7 -8 9 -15 4 -15 -5 0 -2 -5 6 -11 12 -8 10 -9 -8 -4 -17 5 -28 1 -43 -16 -10
-12 -19 -26 -19 -31 0 -15 15 -8 28 12 14 24 32 26 32 5 0 -8 -7 -15 -15 -15
-9 0 -18 -6 -21 -14 -3 -8 -12 -12 -20 -9 -9 3 -14 -2 -14 -16 0 -12 -5 -20
-11 -18 -6 1 -14 -4 -16 -10 -3 -7 0 -13 6 -13 20 0 12 -21 -32 -84 -60 -85
-65 -97 -24 -53 42 44 47 45 45 13 -1 -14 -5 -23 -9 -20 -4 2 -17 -8 -28 -22
-23 -29 -28 -79 -10 -90 8 -4 9 0 4 15 -9 29 4 69 16 50 6 -10 9 -8 9 9 0 12
5 22 10 22 14 0 12 -22 -3 -45 -16 -24 -21 -75 -7 -75 5 0 7 7 4 15 -7 18 5
19 28 2 18 -14 8 -45 -11 -33 -7 5 -11 -5 -11 -28 0 -25 -6 -39 -22 -50 -22
-15 -22 -17 -5 -45 22 -37 21 -41 -2 -41 -11 0 -23 -4 -26 -10 -3 -5 -3 -10 2
-10 4 0 8 -27 8 -61 1 -58 0 -60 -22 -54 -13 3 -23 1 -23 -5 0 -5 10 -10 22
-10 17 0 19 -3 10 -12 -19 -19 -14 -31 12 -24 24 6 25 5 21 -44 -4 -56 -11
-84 -27 -117 -9 -18 -7 -31 7 -63 21 -47 15 -59 -20 -36 -14 9 -25 12 -25 7 0
-6 8 -14 17 -20 16 -9 16 -11 -2 -33 -11 -12 -13 -18 -5 -12 16 12 50 15 50 4
0 -4 -9 -15 -20 -25 -11 -10 -20 -25 -20 -33 0 -12 -3 -12 -15 -2 -23 19 -19
-6 5 -30 24 -24 26 -58 5 -66 -8 -4 -15 -10 -15 -16 0 -5 5 -6 10 -3 14 9 12
-5 -5 -35 -8 -14 -14 -36 -15 -50 0 -13 -6 -42 -14 -65 -30 -89 -34 -105 -25
-99 12 7 11 -3 -1 -46 -6 -22 -6 -38 0 -44 6 -6 10 -16 10 -24 0 -20 59 -66
93 -72 25 -4 36 -14 54 -49 1 -1 6 0 12 4 8 4 8 12 0 26 -13 25 -5 36 15 20
11 -9 22 -3 55 35 33 38 41 43 41 26 0 -11 3 -23 8 -25 4 -3 7 27 7 66 1 40 6
95 13 122 7 28 15 129 19 225 4 122 10 184 20 203 8 17 12 40 8 57 -3 16 3 64
14 111 25 101 50 126 100 99 31 -16 54 10 56 63 2 36 9 53 28 73 15 15 24 31
21 36 -7 11 24 48 40 48 10 0 49 29 128 92 58 47 219 70 327 47 41 -8 54 -8
73 5 13 9 68 20 123 26 145 16 155 20 155 69 0 33 -32 100 -47 101 -7 0 -13 6
-13 14 0 18 -27 29 -33 13 -5 -14 -92 59 -102 86 -4 10 -16 26 -28 37 -11 11
-22 34 -23 52 -1 18 -3 37 -3 41 -1 5 -5 5 -11 2 -6 -3 -10 5 -10 19 0 20 7
27 33 34 24 7 35 6 43 -4 6 -8 14 -10 18 -6 4 4 13 -1 21 -11 11 -15 14 -15
25 -2 7 8 19 15 27 15 8 0 12 4 8 9 -3 5 -1 12 5 16 5 3 10 15 10 26 0 10 5
19 10 19 6 0 10 5 10 11 0 5 -6 7 -12 3 -7 -5 0 7 16 26 16 19 38 39 49 43 27
10 42 -5 28 -30 -7 -15 -5 -27 9 -51 25 -41 30 -40 23 6 -3 20 -7 62 -8 92 -1
30 -2 61 -3 67 -2 13 -57 45 -69 41 -13 -5 -16 53 -4 65 6 6 11 24 11 39 0 18
5 28 14 28 19 0 41 66 28 83 -5 7 -12 24 -16 40 -5 23 -3 27 14 27 12 0 20 7
20 16 0 14 -3 14 -15 4 -19 -16 -20 -6 -1 12 11 12 4 17 -46 35 -50 17 -61 18
-73 7 -11 -11 -15 -9 -24 18 -6 17 -14 28 -17 25 -4 -3 -23 5 -43 18 -39 27
-53 29 -91 13z m-120 -37 c0 -6 -4 -12 -8 -15 -5 -3 -9 1 -9 9 0 8 4 15 9 15
4 0 8 -4 8 -9z m84 -6 c4 -12 0 -14 -19 -11 -17 3 -22 1 -18 -10 3 -8 0 -14
-6 -14 -12 0 -14 11 -5 34 8 20 40 21 48 1z m-194 -5 c0 -5 -4 -10 -9 -10 -6
0 -13 5 -16 10 -3 6 1 10 9 10 9 0 16 -4 16 -10z m420 -60 c0 -5 -5 -10 -11
-10 -5 0 -7 5 -4 10 3 6 8 10 11 10 2 0 4 -4 4 -10z m-746 -84 c-21 -15 -30
-14 -19 3 3 6 14 11 23 11 13 0 13 -2 -4 -14z m69 -46 c15 -18 16 -21 2 -26
-19 -8 -20 -6 -29 24 -9 27 4 29 27 2z m-163 -70 c0 -5 -5 -10 -11 -10 -5 0
-7 5 -4 10 3 6 8 10 11 10 2 0 4 -4 4 -10z m13 -39 c6 -23 -7 -48 -17 -33 -4
6 -13 9 -21 5 -21 -7 -19 17 3 33 23 18 29 17 35 -5z m932 -130 c-4 -3 -24
-11 -46 -17 -36 -11 -39 -10 -39 7 0 22 58 42 78 26 7 -5 10 -13 7 -16z
m-1138 -278 c0 -7 -4 -13 -9 -13 -4 0 -11 -1 -15 -2 -3 -2 -7 4 -8 12 -2 9 5
16 15 16 9 0 17 -6 17 -13z m-52 -133 c-8 -16 -15 -36 -15 -45 0 -32 -26 -14
-28 20 -2 26 1 35 13 35 8 0 15 5 15 10 0 6 7 10 15 10 14 0 14 -3 0 -30z
m-42 -77 c-7 -2 -13 -13 -13 -22 0 -10 -9 -26 -20 -36 -18 -17 -20 -17 -20 -1
0 25 30 66 49 65 10 0 11 -2 4 -6z m-3 -103 c0 -5 -5 -10 -11 -10 -5 0 -8 -4
-5 -9 7 -11 -22 -36 -31 -27 -4 4 -3 10 3 14 6 4 13 15 17 25 7 18 27 24 27 7z
m-30 -75 c0 -8 -4 -15 -10 -15 -5 0 -10 7 -10 15 0 8 5 15 10 15 6 0 10 -7 10
-15z m23 -56 c-6 -6 -9 -18 -6 -25 3 -8 0 -14 -6 -14 -6 0 -11 8 -11 18 0 21
8 32 24 32 6 0 6 -4 -1 -11z m-10 -104 c-3 -13 -11 -29 -18 -35 -11 -9 -13 3
-6 53 1 4 7 7 15 7 9 0 12 -8 9 -25z m-57 -94 c-4 -5 0 -12 6 -14 8 -3 6 -6
-4 -6 -10 -1 -18 6 -18 14 0 8 5 15 11 15 5 0 8 -4 5 -9z m-6 -67 c0 -14 -4
-23 -9 -20 -7 5 -8 23 -2 44 4 12 11 -3 11 -24z m17 4 c-3 -8 -6 -5 -6 6 -1
11 2 17 5 13 3 -3 4 -12 1 -19z m-30 -70 c-3 -7 -5 -2 -5 12 0 14 2 19 5 13 2
-7 2 -19 0 -25z m-27 -748 c-19 -36 -43 -22 -31 18 1 1 10 2 21 2 18 0 19 -3
10 -20z m0 -45 c0 -8 -4 -15 -10 -15 -5 0 -10 7 -10 15 0 8 5 15 10 15 6 0 10
-7 10 -15z m-63 -62 c-3 -10 -5 -2 -5 17 0 19 2 27 5 18 2 -10 2 -26 0 -35z
m43 2 c0 -8 -4 -15 -10 -15 -5 0 -10 7 -10 15 0 8 5 15 10 15 6 0 10 -7 10
-15z m20 -56 c0 -18 -2 -19 -15 -9 -15 12 -12 30 6 30 5 0 9 -10 9 -21z"/>
<path d="M7815 4080 c-4 -6 24 -46 30 -43 8 3 65 -21 65 -28 0 -3 12 -4 26 -1
16 3 30 -1 35 -9 6 -10 9 -10 9 -2 0 7 7 10 15 7 13 -6 20 6 16 29 0 4 7 7 17
7 10 0 18 8 19 19 1 15 -7 21 -35 26 -43 7 -192 4 -197 -5z"/>
<path d="M6245 4060 c-3 -5 1 -10 9 -10 9 0 16 5 16 10 0 6 -4 10 -9 10 -6 0
-13 -4 -16 -10z"/>
<path d="M8175 3984 c0 -23 -6 -29 -35 -37 -62 -16 -77 -41 -35 -57 21 -8 23
-13 16 -32 -11 -30 -2 -128 12 -125 6 1 14 -9 18 -23 6 -17 7 -11 3 20 -3 25
-11 58 -19 73 -10 20 -10 27 -2 25 7 -1 28 5 47 14 61 26 90 30 90 13 0 -9 -6
-15 -13 -13 -20 5 -89 -41 -84 -56 3 -7 0 -19 -6 -25 -13 -13 -10 -16 21 -25
15 -5 22 -3 22 6 0 7 27 36 60 63 52 43 59 54 55 78 -2 15 0 28 5 28 6 1 14 2
19 3 38 5 -5 55 -49 56 -22 1 -61 13 -110 34 -12 5 -16 0 -15 -20z m81 -35
c53 -33 46 -41 -47 -54 -33 -5 -49 -3 -55 6 -4 8 -2 15 6 17 8 3 23 15 34 27
26 29 23 29 62 4z"/>
<path d="M2110 3905 c0 -5 5 -17 10 -25 5 -8 10 -10 10 -5 0 6 -5 17 -10 25
-5 8 -10 11 -10 5z"/>
<path d="M8326 3821 c-4 -7 -5 -15 -2 -18 9 -9 19 4 14 18 -4 11 -6 11 -12 0z"/>
<path d="M2156 3747 c3 -10 9 -15 12 -12 3 3 0 11 -7 18 -10 9 -11 8 -5 -6z"/>
<path d="M2690 3715 c0 -8 4 -15 10 -15 5 0 7 7 4 15 -4 8 -8 15 -10 15 -2 0
-4 -7 -4 -15z"/>
<path d="M7850 3657 c0 -8 -8 -18 -17 -21 -15 -6 -15 -8 0 -23 14 -14 18 -14
33 -2 9 8 20 13 23 12 3 -2 6 7 6 20 0 15 -7 23 -22 25 -15 2 -23 -2 -23 -11z"/>
<path d="M2212 3589 c6 -16 12 -28 14 -26 5 5 -13 57 -20 57 -3 0 0 -14 6 -31z"/>
<path d="M9124 3608 c-4 -7 -14 -24 -22 -38 -14 -24 -13 -24 3 -5 20 24 37 55
31 55 -3 0 -8 -6 -12 -12z"/>
<path d="M3102 3542 c-17 -17 -19 -52 -30 -398 -7 -208 -20 -513 -28 -678 -12
-217 -13 -301 -5 -309 7 -7 99 -12 270 -14 250 -4 260 -3 270 16 6 11 11 75
11 143 0 68 5 211 10 318 5 107 10 254 11 325 1 72 5 157 10 190 5 33 13 132
19 220 8 132 7 162 -4 173 -11 11 -65 15 -232 18 -121 2 -233 6 -251 9 -23 4
-37 1 -51 -13z m280 -303 c20 -11 20 -11 -3 -35 -12 -13 -29 -24 -36 -24 -8 0
-12 -4 -9 -9 11 -16 -43 2 -65 23 -13 11 -37 21 -53 21 -16 0 -31 6 -34 14 -3
10 2 13 22 9 15 -3 29 -1 32 3 8 13 121 11 146 -2z m-35 -141 c-2 -7 0 -22 6
-33 18 -34 18 -53 -3 -90 -11 -20 -20 -49 -20 -66 0 -20 -8 -37 -22 -49 -22
-18 -22 -19 -5 -38 11 -12 21 -43 24 -74 3 -29 12 -66 20 -81 19 -38 9 -49
-40 -42 -23 3 -55 2 -72 -3 -25 -7 -32 -16 -39 -51 -9 -41 -8 -43 33 -85 49
-50 49 -59 -2 -140 -17 -26 -31 -59 -32 -71 -1 -27 -31 -65 -51 -65 -8 0 -21
11 -30 25 -13 20 -15 39 -9 107 4 46 14 99 22 119 11 29 12 55 5 120 -11 105
-5 204 14 241 16 32 22 153 9 206 -5 23 -3 39 9 57 15 23 22 25 102 25 64 0
85 -3 81 -12z"/>
<path d="M8082 3530 c0 -14 2 -19 5 -12 2 6 2 18 0 25 -3 6 -5 1 -5 -13z"/>
<path d="M6673 3487 c-16 -10 -16 -8 8 -307 5 -69 14 -183 19 -254 6 -70 13
-142 16 -160 4 -24 6 -443 2 -571 0 -11 18 -58 40 -105 22 -47 45 -97 51 -112
14 -36 69 -49 90 -21 15 19 16 18 70 -14 30 -18 61 -33 69 -33 7 0 22 -5 33
-11 19 -10 20 -11 3 -23 -11 -8 -18 -27 -18 -50 -1 -30 -4 -36 -18 -32 -16 4
-22 -5 -20 -25 2 -15 -38 4 -43 21 -6 20 -65 23 -65 3 0 -7 -6 -13 -14 -13
-23 0 -80 22 -91 35 -5 6 -23 15 -38 19 -15 3 -25 11 -22 16 3 5 0 12 -6 16
-6 3 -14 2 -18 -4 -10 -17 -35 4 -36 29 0 17 -13 29 -55 50 -48 24 -175 68
-220 76 -8 2 -40 7 -70 12 -30 5 -116 31 -190 56 -89 31 -150 47 -180 46 -43
-1 -184 24 -202 35 -5 3 -15 1 -22 -5 -10 -8 -20 -6 -39 9 -14 11 -34 20 -45
20 -11 0 -36 7 -57 16 -20 8 -34 10 -30 5 4 -7 -6 -11 -24 -11 -17 0 -31 -5
-31 -11 0 -5 -5 -7 -11 -4 -6 4 -9 1 -7 -6 1 -8 -1 -15 -6 -16 -5 -1 -13 -7
-17 -15 -6 -9 -9 -10 -9 -1 0 8 -10 11 -29 7 -17 -4 -32 -1 -36 5 -5 9 -10 9
-21 0 -8 -6 -16 -10 -18 -8 -8 9 -14 79 -6 74 9 -6 20 18 21 48 0 21 1 21 9 2
6 -14 9 -15 9 -5 1 24 -29 62 -45 56 -9 -3 -11 0 -7 11 4 10 2 14 -4 10 -14
-9 -23 15 -18 43 3 14 -3 23 -18 29 -12 5 -30 18 -40 29 -10 11 -31 23 -45 27
-31 7 -72 43 -72 61 0 16 -43 64 -58 64 -6 0 -12 4 -14 8 -1 4 -21 17 -43 29
-49 24 -91 16 -82 -17 3 -11 1 -20 -4 -20 -5 0 -9 7 -9 16 0 12 -3 14 -13 6
-7 -6 -23 -9 -35 -5 -13 3 -22 1 -22 -6 0 -7 -4 -10 -10 -6 -5 3 -6 13 -3 21
4 10 1 15 -8 13 -32 -5 -67 13 -74 39 -18 68 -17 71 17 77 18 3 44 7 58 8 13
1 33 10 43 20 14 14 30 18 62 15 55 -4 44 14 -22 36 -64 22 -131 20 -189 -5
-50 -22 -117 -75 -144 -115 -8 -12 -24 -34 -34 -48 -25 -35 -23 -137 4 -214
20 -57 20 -80 0 -43 -6 12 -15 21 -21 21 -6 0 -7 -4 -4 -10 13 -22 -13 -8 -60
31 -60 50 -83 65 -112 74 -22 6 -23 4 -17 -42 4 -26 13 -63 21 -82 10 -26 10
-36 2 -42 -8 -4 -5 -10 7 -18 13 -9 15 -14 7 -17 -7 -3 -13 -19 -13 -34 0 -16
-5 -32 -10 -35 -6 -4 -8 -10 -5 -14 10 -18 -27 -99 -55 -120 -17 -12 -30 -28
-30 -35 0 -15 59 -56 110 -76 19 -7 40 -17 45 -20 6 -4 27 -10 48 -14 20 -4
37 -11 37 -16 0 -6 7 -10 15 -10 21 0 19 -23 -5 -40 -10 -8 -22 -27 -25 -42
-4 -16 -11 -26 -16 -22 -5 3 -9 0 -9 -6 0 -8 -18 -11 -52 -8 -48 3 -53 1 -56
-19 -2 -16 -8 -20 -20 -16 -9 3 -14 3 -10 -2 4 -4 3 -14 -3 -22 -9 -9 -8 -13
0 -13 7 0 30 -18 52 -40 22 -22 45 -40 49 -40 24 0 92 45 117 78 42 53 61 72
76 72 8 0 20 11 27 26 l14 25 14 -26 c13 -25 17 -26 62 -20 26 4 50 2 54 -3
13 -22 -116 -118 -258 -191 -106 -54 -185 -103 -228 -141 -9 -8 -43 -30 -75
-49 -128 -75 -155 -95 -197 -145 -80 -95 -64 -135 28 -67 30 22 57 45 61 51
18 28 160 74 284 90 35 5 68 14 72 22 5 7 9 9 9 4 0 -6 12 5 26 22 15 18 33
32 40 32 8 0 13 5 12 12 -2 6 10 18 27 27 16 9 38 26 48 39 11 13 40 45 66 71
25 27 60 65 76 84 17 20 34 37 39 37 5 0 6 -21 2 -47 -4 -27 -13 -86 -20 -132
l-11 -84 -55 -30 c-120 -65 -205 -96 -326 -116 -184 -31 -210 -46 -397 -229
-84 -83 -135 -147 -124 -158 2 -3 38 21 78 53 41 32 90 70 109 83 19 13 66 52
103 87 100 91 144 106 335 111 103 3 152 0 152 -7 0 -19 -61 -164 -88 -211
-44 -77 -132 -259 -132 -275 0 -8 7 -15 15 -15 8 0 15 4 15 9 0 15 43 18 70 5
14 -6 43 -14 65 -17 126 -18 187 -44 265 -114 28 -25 50 -41 50 -36 0 4 14 -7
30 -26 24 -26 30 -30 30 -15 0 14 7 11 38 -18 20 -19 45 -38 55 -41 15 -6 26
-47 11 -47 -11 0 -49 23 -78 47 -38 32 -53 18 -50 -49 2 -64 45 -168 69 -168
24 0 41 20 48 58 7 32 42 80 52 70 3 -3 -8 -38 -25 -79 -30 -72 -31 -77 -25
-189 4 -63 9 -123 11 -132 5 -17 27 -18 274 -18 l268 0 4 29 c2 17 0 38 -6 48
-13 24 -15 53 -3 53 5 0 3 8 -4 17 -10 11 -10 14 -1 9 8 -5 12 0 12 13 0 12
-4 21 -10 21 -14 0 -12 28 3 33 9 3 9 8 -3 21 -17 21 -23 76 -8 76 5 0 8 6 5
13 -2 6 -1 19 4 28 11 22 134 27 142 6 11 -30 110 -64 189 -66 33 -1 68 -36
68 -67 0 -30 35 -88 63 -107 19 -12 24 -12 35 -1 10 11 8 23 -7 63 -10 28 -16
53 -13 56 13 13 10 41 -6 53 -14 11 -15 14 -2 22 9 5 19 5 27 -2 7 -5 24 -7
37 -4 21 5 28 1 40 -21 l15 -28 1 35 c0 41 16 71 28 54 5 -9 23 -7 66 6 32 11
77 22 99 26 22 3 72 23 112 43 69 35 70 37 61 64 -9 24 -14 27 -41 22 l-30 -6
33 20 c18 12 38 21 45 21 22 0 108 46 100 54 -4 4 0 4 10 0 10 -4 17 -1 17 6
0 6 -9 14 -20 17 -20 5 -25 15 -14 26 10 10 44 -12 44 -28 0 -7 12 -18 28 -23
15 -6 21 -11 14 -11 -8 -1 -5 -9 8 -23 l21 -23 -23 -3 c-13 -2 -37 -10 -55
-18 -40 -18 -42 -18 -62 8 -13 16 -23 19 -37 13 -17 -7 -17 -9 -2 -12 22 -5
32 -34 16 -45 -20 -12 46 -10 99 4 43 10 47 10 63 -13 18 -23 100 -215 100
-233 0 -8 61 -106 66 -106 2 0 -3 19 -11 41 -15 40 -14 42 10 65 27 25 28 34
25 132 -2 59 -1 62 22 61 21 0 21 -1 4 -8 -18 -7 -18 -8 -2 -14 21 -8 39 0 30
15 -4 6 2 6 15 -1 30 -16 26 -31 -8 -31 -32 0 -49 -14 -31 -25 6 -4 15 -18 20
-31 5 -13 16 -24 25 -24 8 0 15 -4 15 -10 0 -5 -7 -10 -16 -10 -14 0 -15 -7
-11 -37 4 -20 2 -42 -3 -48 -5 -6 -11 -21 -13 -31 -1 -11 -13 -33 -25 -49 -19
-24 -25 -27 -32 -15 -15 23 -12 7 6 -36 l16 -39 19 24 c11 13 22 21 26 17 3
-3 -2 -15 -11 -25 -26 -28 -13 -61 24 -61 19 0 36 10 54 31 14 17 26 35 26 40
0 5 13 30 29 56 27 44 31 61 42 196 l12 148 -52 51 c-29 28 -50 57 -47 64 3 8
-3 18 -14 24 -24 13 -33 13 -24 -1 4 -8 -1 -9 -17 -4 -13 5 -33 9 -44 10 -11
1 -25 3 -31 4 -20 2 -25 41 -6 41 12 1 9 6 -10 21 -34 25 -35 39 -3 62 25 18
25 17 55 -13 20 -21 30 -26 30 -15 0 8 -5 15 -11 15 -5 0 -7 6 -3 13 4 6 4 9
-1 5 -4 -4 -14 0 -21 10 -19 24 -17 32 6 32 14 0 18 5 13 17 -4 11 -8 12 -11
5 -4 -13 -33 -17 -31 -4 5 29 -3 72 -11 67 -7 -4 -9 3 -6 20 3 15 0 28 -8 31
-12 5 -13 54 -1 74 4 6 3 16 -2 23 -5 7 -10 29 -12 49 -1 20 -11 63 -22 95
-19 55 -30 124 -45 275 l-7 67 59 -16 c32 -9 66 -24 74 -33 20 -23 45 -31 59
-17 14 14 23 5 16 -15 -5 -12 -21 -14 -87 -10 -58 3 -83 1 -88 -8 -22 -36 6
-39 288 -31 13 1 20 5 17 11 -3 5 -27 7 -53 4 l-47 -5 33 15 c34 16 43 36 16
36 -11 0 -14 5 -10 16 3 9 6 18 6 20 0 11 40 2 41 -8 1 -7 2 -24 2 -38 2 -19
8 -25 26 -25 16 0 25 6 27 19 1 11 6 31 10 45 l7 26 6 -24 c4 -13 15 -25 25
-27 11 -1 16 2 12 11 -2 7 11 27 29 44 l34 30 11 -34 c6 -20 15 -33 20 -30 5
3 12 -5 15 -17 9 -28 35 -59 45 -53 4 3 11 26 15 52 4 27 15 84 26 129 17 74
18 85 4 138 -17 67 -34 100 -70 141 l-27 30 21 -32 c25 -37 28 -78 6 -69 -14
5 -14 2 0 -24 17 -33 20 -60 5 -60 -5 0 -10 -5 -10 -11 0 -12 -46 -59 -58 -59
-9 0 -47 59 -56 87 -6 18 -1 23 28 33 36 11 63 36 53 47 -4 3 -16 -5 -27 -18
-20 -22 -20 -22 -11 -2 14 27 14 36 1 28 -6 -3 -13 0 -16 9 -3 8 -14 13 -26
11 -18 -4 -78 29 -86 48 -2 4 -8 5 -13 1 -16 -9 -10 23 7 37 14 11 14 13 0 21
-9 5 -21 6 -26 3 -6 -3 -10 -2 -10 2 0 5 -15 8 -32 8 -18 0 -43 3 -55 7 -28 9
-53 1 -53 -18 0 -8 -5 -14 -10 -14 -15 0 -34 46 -27 64 6 15 57 42 92 48 21 4
22 10 14 90 -2 21 -7 38 -11 38 -3 0 -11 14 -17 31 -6 17 -15 28 -21 24 -5 -3
-10 -1 -10 4 0 20 -19 11 -32 -16 -19 -38 -47 -39 -55 -2 -3 16 -10 32 -15 35
-4 3 -8 2 -6 -3 4 -16 -14 -73 -38 -120 -13 -27 -27 -65 -30 -85 -4 -21 -10
-38 -14 -38 -5 0 -6 10 -2 22 3 13 1 19 -5 15 -17 -11 -30 13 -43 78 -6 33
-19 85 -28 115 -9 30 -17 60 -18 65 0 6 -4 17 -8 26 -4 9 -6 20 -5 25 4 17
-13 44 -27 44 -12 0 -12 4 -3 21 9 17 8 23 -2 30 -12 7 -12 9 0 9 10 0 12 9 7
33 -3 17 -7 39 -8 47 0 8 -5 21 -11 28 -6 8 -5 12 4 12 11 0 11 2 -1 10 -13 8
-12 10 3 10 9 0 17 7 17 15 0 8 5 15 11 15 8 0 8 4 1 13 -12 15 -7 126 8 141
5 5 10 6 10 1 0 -5 6 -1 13 9 23 32 -5 74 -45 67 -5 0 -8 2 -8 6 0 15 16 31
46 46 27 14 66 15 295 11 145 -3 283 -6 306 -6 34 0 44 -5 50 -22 10 -28 10
-32 12 -61 0 -14 5 -25 10 -25 14 0 16 79 13 426 -2 187 -5 244 -16 259 -13
18 -32 19 -401 20 -212 0 -393 -4 -402 -8z m-1652 -1034 c-12 -20 -14 -14 -5
12 4 9 9 14 11 11 3 -2 0 -13 -6 -23z m59 23 c0 -3 -4 -8 -10 -11 -5 -3 -10
-1 -10 4 0 6 5 11 10 11 6 0 10 -2 10 -4z m-4 -63 c-6 -6 -36 9 -36 18 0 5 9
4 20 -3 10 -7 18 -14 16 -15z m-139 -35 c-3 -8 -6 -5 -6 6 -1 11 2 17 5 13 3
-3 4 -12 1 -19z m-57 8 c0 -3 -4 -8 -10 -11 -5 -3 -10 -1 -10 4 0 6 5 11 10
11 6 0 10 -2 10 -4z m40 -26 c0 -5 -7 -7 -15 -4 -8 4 -15 8 -15 10 0 2 7 4 15
4 8 0 15 -4 15 -10z m70 -10 c0 -5 -5 -10 -11 -10 -5 0 -7 5 -4 10 3 6 8 10
11 10 2 0 4 -4 4 -10z m570 -175 c0 -8 -4 -15 -10 -15 -5 0 -10 7 -10 15 0 8
5 15 10 15 6 0 10 -7 10 -15z m-175 -227 c14 -6 28 -23 32 -37 9 -40 14 -44
34 -25 15 13 22 14 33 5 13 -11 12 -15 -3 -30 -10 -10 -24 -20 -31 -23 -17 -5
-101 -285 -127 -422 -5 -26 -3 -28 16 -23 33 8 89 -11 107 -38 10 -16 14 -34
9 -54 -3 -16 -2 -39 4 -50 13 -24 4 -52 -15 -44 -8 3 -14 -1 -14 -10 0 -9 -5
-19 -12 -23 -8 -5 -9 0 -6 14 4 14 0 25 -10 31 -13 7 -13 10 4 19 11 6 20 22
21 39 l2 28 -22 -26 c-12 -14 -30 -29 -41 -33 -15 -5 -18 -2 -14 19 3 14 1 25
-4 25 -5 0 -2 13 7 30 20 39 19 47 -9 52 -23 5 -26 1 -35 -44 -6 -27 -11 -64
-11 -82 0 -18 -5 -58 -11 -90 -12 -56 -6 -84 11 -56 5 8 12 11 17 7 4 -4 2
-17 -5 -27 -15 -24 -15 -30 -2 -30 6 0 15 10 20 23 l9 22 0 -22 c1 -24 -26
-37 -53 -27 -11 4 -16 1 -16 -12 0 -18 -37 -124 -46 -134 -6 -5 1 40 16 120 9
47 17 118 23 207 1 12 5 25 10 29 4 4 7 34 7 67 0 33 5 78 11 101 29 109 41
153 49 171 25 60 50 146 55 188 4 37 0 58 -20 102 -35 78 -34 83 10 63z m1765
-63 c0 -8 -9 -15 -20 -15 -22 0 -27 15 -7 23 21 9 27 7 27 -8z m25 -135 c3 -5
1 -10 -4 -10 -6 0 -11 5 -11 10 0 6 2 10 4 10 3 0 8 -4 11 -10z m112 -26 c-9
-10 -38 16 -31 28 4 6 13 4 22 -6 9 -8 13 -19 9 -22z m-1413 0 c3 -8 2 -12 -4
-9 -6 3 -10 10 -10 16 0 14 7 11 14 -7z m-54 -47 c-16 -18 -30 -36 -30 -40 0
-5 -4 -5 -10 -2 -5 3 -10 2 -10 -3 0 -5 -15 -20 -32 -33 -35 -25 -46 -49 -25
-50 10 0 -80 -46 -108 -55 -5 -2 -28 -10 -50 -18 -36 -13 -168 -32 -137 -19 6
2 9 10 5 16 -4 7 1 6 11 -2 13 -11 20 -11 28 -3 9 9 8 12 -2 12 -8 1 14 13 50
27 36 15 91 44 123 65 32 21 63 38 68 38 5 0 9 5 9 10 0 6 16 18 35 27 21 10
35 24 35 35 0 11 7 18 19 18 11 0 23 5 26 10 4 6 11 8 16 5 5 -4 -5 -21 -21
-38z m235 11 c-3 -13 -7 -29 -7 -35 -1 -7 -8 -13 -16 -13 -8 0 -12 6 -8 15 3
8 0 15 -7 16 -9 0 -9 2 1 6 6 2 12 11 12 19 0 8 7 14 16 14 12 0 15 -6 9 -22z
m648 5 c-13 -2 -33 -2 -45 0 -13 2 -3 4 22 4 25 0 35 -2 23 -4z m313 -8 c9 -8
11 -15 6 -15 -5 0 -15 7 -22 15 -7 8 -9 15 -6 15 4 0 14 -7 22 -15z m-542 -11
c4 -12 2 -15 -9 -10 -10 3 -16 -1 -17 -12 -2 -32 -4 -37 -11 -50 -9 -13 -7
-130 2 -146 2 -5 8 -1 12 10 7 18 8 18 8 -2 1 -12 -7 -25 -16 -28 -14 -6 -15
-9 -4 -15 16 -10 23 -89 9 -97 -5 -3 -6 -19 -3 -36 4 -16 7 -46 7 -66 0 -21 5
-45 10 -56 7 -13 6 -21 -3 -28 -8 -6 -10 -11 -4 -14 6 -2 9 -27 8 -55 0 -28 3
-64 7 -79 5 -16 4 -30 0 -32 -7 -3 -20 -142 -20 -217 0 -16 -4 -21 -15 -17
-20 7 -19 -4 3 -21 15 -12 14 -13 -13 -7 -39 9 -60 25 -45 34 8 5 7 11 -3 21
-28 29 -38 62 -38 127 1 146 -14 337 -26 335 -9 -2 -10 4 -3 22 6 15 6 26 -1
30 -5 4 -6 12 -2 18 4 7 6 19 5 29 -2 9 2 19 7 22 6 4 8 12 6 19 -2 7 -6 31
-9 55 -4 32 -2 41 7 36 9 -5 9 -4 0 7 -7 7 -13 20 -13 29 0 13 1 13 10 0 8
-12 10 -11 10 8 0 12 -4 22 -10 22 -6 0 -6 9 -1 23 5 12 7 49 6 82 -1 33 -1
63 2 68 2 4 35 7 73 7 53 0 69 -3 74 -16z m80 -6 c3 -13 10 -70 16 -128 6 -58
20 -170 30 -250 11 -80 22 -160 24 -177 3 -19 30 -67 65 -115 34 -46 86 -117
116 -158 64 -87 85 -141 65 -165 -7 -9 -21 -39 -30 -67 l-16 -50 -36 73 c-19
41 -45 85 -56 99 l-21 25 -33 -31 c-53 -49 -111 -88 -134 -91 -17 -3 -21 2
-21 22 0 16 5 25 16 25 22 0 41 33 34 59 -3 11 -1 21 3 22 22 2 44 8 59 17 15
8 14 10 -9 16 -26 6 -35 29 -16 41 6 3 10 1 10 -5 0 -7 6 -10 13 -7 6 2 10 11
9 18 -2 8 -6 29 -8 47 -2 18 -11 44 -20 57 -9 13 -13 29 -10 34 4 5 2 12 -2
15 -5 3 -10 27 -11 53 -2 52 -7 95 -11 103 -1 3 -2 13 -1 22 1 10 -2 26 -8 36
-7 13 -7 22 1 30 14 14 -8 137 -28 157 -8 7 -14 20 -14 27 0 10 3 9 10 -2 8
-13 10 -13 10 2 0 9 -4 19 -9 22 -4 3 -9 32 -10 63 -2 77 -9 130 -21 152 -11
21 -4 31 21 31 11 0 21 -9 23 -22z m311 -5 c25 -12 34 -22 30 -34 -3 -9 1 -24
9 -32 8 -8 12 -17 9 -21 -3 -3 2 -8 11 -12 24 -9 19 -24 -9 -24 -19 0 -26 7
-31 28 -4 15 -20 46 -35 70 -16 23 -26 42 -24 42 2 0 20 -8 40 -17z m233 -85
c28 -28 1 -75 -38 -63 -14 4 -20 15 -20 34 0 15 3 31 7 34 10 11 38 8 51 -5z
m115 -29 c16 -26 1 -49 -33 -49 -31 0 -35 7 -24 48 8 27 41 27 57 1z m-735
-34 c-3 -3 -9 2 -12 12 -6 14 -5 15 5 6 7 -7 10 -15 7 -18z m-1628 -21 c0 -13
-4 -24 -10 -24 -5 0 -10 14 -10 31 0 17 4 28 10 24 6 -3 10 -17 10 -31z m1169
4 c0 -27 -2 -29 -8 -13 -5 11 -6 26 -4 33 8 21 13 13 12 -20z m468 -230 c-3
-8 -6 -5 -6 6 -1 11 2 17 5 13 3 -3 4 -12 1 -19z m-1116 -52 c8 4 10 3 5 -4
-4 -7 -14 -12 -22 -12 -7 0 -19 -9 -26 -20 -7 -11 -17 -20 -21 -20 -11 0 1 50
16 68 9 11 13 11 23 -3 7 -10 18 -14 25 -9z m-631 -6 c12 -8 10 -9 -7 -7 -12
2 -26 6 -29 10 -11 11 19 8 36 -3z m-10 -59 c13 -9 25 -15 27 -13 7 6 23 1 35
-12 18 -17 120 -66 139 -66 8 0 42 -10 74 -21 33 -12 76 -22 95 -23 30 -1 35
-5 38 -29 2 -18 -2 -29 -14 -34 -16 -6 -103 12 -134 28 -81 41 -139 54 -240
53 -66 0 -114 -5 -129 -13 -22 -12 -23 -12 -16 5 4 11 16 41 27 69 37 93 38
94 98 56z m730 -47 c0 -18 -17 -27 -23 -12 -3 7 -10 0 -18 -17 -12 -28 -13
-29 -16 -7 -3 12 -10 22 -16 22 -7 1 -2 9 11 19 12 11 22 27 22 38 1 16 3 15
20 -6 11 -13 20 -29 20 -37z m-55 -97 c-6 -21 -10 -24 -20 -14 -11 10 -10 15
3 30 19 22 25 17 17 -16z m-59 -44 c-11 -11 -17 4 -9 23 7 18 8 18 11 1 2 -10
1 -21 -2 -24z m-651 -57 c22 -2 41 -9 43 -15 2 -6 7 -9 12 -6 4 3 13 -2 20
-10 11 -13 7 -15 -26 -16 -41 0 -74 -3 -166 -15 -36 -4 -58 -3 -58 3 0 16 33
41 63 48 15 4 29 11 32 15 3 5 13 6 23 4 9 -2 35 -5 57 -8z m524 -198 c1 -42
-6 -107 -14 -145 -24 -102 -25 -107 -38 -94 -8 8 -7 17 0 33 6 13 14 70 17
128 3 58 9 128 13 155 6 42 8 46 14 25 4 -14 7 -60 8 -102z m-116 2 c49 -31
60 -50 29 -50 -16 0 -112 66 -112 76 0 13 43 0 83 -26z m1371 -170 c-10 -16
-20 -27 -22 -25 -5 5 26 55 34 55 3 0 -3 -13 -12 -30z m46 -35 c0 -2 -13 -11
-30 -20 -34 -18 -74 -20 -64 -4 3 6 15 9 25 6 11 -3 19 -1 19 5 0 5 4 7 9 3 5
-3 12 -1 16 5 6 10 25 14 25 5z m370 -85 c0 -10 3 -27 7 -37 15 -43 -12 2 -33
54 l-23 58 24 -28 c14 -15 25 -36 25 -47z m199 -44 c7 -8 8 -17 3 -20 -6 -3
-12 3 -15 14 -6 24 -4 25 12 6z m-123 -123 c-11 -11 -19 6 -11 24 8 17 8 17
12 0 3 -10 2 -21 -1 -24z"/>
<path d="M6641 1010 c2 -33 16 -90 18 -67 0 9 8 17 16 17 22 0 19 15 -10 47
l-24 28 0 -25z"/>
<path d="M6660 913 c0 -22 20 -65 45 -95 21 -25 25 -27 25 -10 0 10 -10 27
-21 38 -12 10 -28 33 -35 49 -7 17 -13 25 -14 18z"/>
<path d="M1046 3461 c-4 -5 -2 -12 3 -15 5 -4 12 -2 15 3 4 5 2 12 -3 15 -5 4
-12 2 -15 -3z"/>
<path d="M5190 3440 c8 -5 20 -10 25 -10 6 0 3 5 -5 10 -8 5 -19 10 -25 10 -5
0 -3 -5 5 -10z"/>
<path d="M8995 3409 c-42 -31 -51 -44 -38 -51 4 -3 25 15 47 39 21 24 37 43
35 43 -2 0 -22 -14 -44 -31z"/>
<path d="M1274 3379 c5 -33 3 -56 -5 -65 -9 -11 -8 -14 4 -14 8 0 20 7 27 15
7 8 18 15 25 15 20 0 36 47 25 75 -8 20 -16 25 -46 25 l-37 0 7 -51z"/>
<path d="M2260 3383 c0 -4 5 -15 10 -23 8 -13 10 -13 10 2 0 9 -4 20 -10 23
-5 3 -10 3 -10 -2z"/>
<path d="M1024 3291 c0 -25 -6 -47 -18 -60 -18 -20 -18 -21 10 -31 40 -16 66
-6 113 40 47 47 51 60 17 60 -14 0 -35 4 -48 9 -13 4 -35 11 -49 14 -25 6 -26
5 -25 -32z"/>
<path d="M3835 3319 c-4 -6 -5 -12 -2 -15 2 -3 7 2 10 11 7 17 1 20 -8 4z"/>
<path d="M1196 3293 c-12 -12 -5 -23 14 -23 11 0 20 4 20 9 0 11 -26 22 -34
14z"/>
<path d="M8986 3258 c-36 -99 -187 -570 -183 -574 2 -2 50 134 106 302 56 169
100 308 98 311 -3 2 -12 -15 -21 -39z"/>
<path d="M4935 3280 c3 -5 8 -10 11 -10 2 0 4 5 4 10 0 6 -5 10 -11 10 -5 0
-7 -4 -4 -10z"/>
<path d="M2314 3237 c18 -78 15 -224 -9 -482 -2 -16 -4 -64 -5 -105 -2 -41 -7
-95 -13 -120 -5 -25 -11 -88 -13 -140 -3 -120 -11 -249 -24 -370 -11 -107 -23
-301 -24 -401 -1 -80 -15 -101 -64 -97 -32 3 -39 9 -77 73 -39 67 -49 76 -110
90 -6 2 -21 23 -34 48 -21 40 -28 46 -65 52 -22 4 -61 15 -86 25 -75 30 -123
33 -182 9 -29 -11 -75 -29 -101 -39 -26 -10 -64 -35 -85 -54 -20 -20 -51 -41
-68 -46 -24 -8 -34 -19 -39 -40 -6 -28 -47 -70 -67 -70 -12 0 -38 -26 -38 -38
0 -5 -11 -21 -24 -35 -13 -14 -34 -40 -47 -59 -13 -18 -29 -39 -36 -46 -7 -7
-13 -22 -13 -33 0 -11 -8 -23 -17 -26 -20 -8 -43 -28 -43 -38 0 -4 -11 -16
-24 -26 -13 -10 -27 -30 -30 -43 -6 -26 -60 -111 -77 -121 -5 -4 -9 -18 -10
-33 0 -19 -13 -38 -45 -65 -25 -20 -43 -37 -40 -37 3 0 2 -10 -3 -23 -6 -15
-4 -34 6 -57 9 -23 10 -36 3 -38 -5 -2 -10 -8 -10 -14 0 -6 -8 -17 -17 -24
-10 -7 -18 -18 -18 -26 0 -7 -10 -17 -22 -23 -26 -11 -30 -37 -9 -54 8 -7 12
-21 9 -32 -5 -18 -12 -20 -54 -17 -51 3 -63 -8 -34 -32 22 -18 19 -29 -12 -41
-33 -12 -85 -3 -62 12 12 8 12 10 0 18 -12 8 -12 12 -2 25 8 9 21 17 30 17 9
1 1 4 -18 8 -19 3 -39 15 -45 26 -6 11 -14 22 -18 25 -8 6 -6 30 4 46 4 6 3
28 -3 48 -6 21 -8 40 -5 44 3 3 1 11 -5 18 -10 13 -6 18 36 39 11 6 21 22 23
36 3 25 1 26 -37 23 -44 -3 -84 -21 -76 -33 5 -8 10 -50 20 -168 l6 -62 -38
-10 c-21 -6 -53 -11 -72 -11 -32 0 -33 1 -16 13 15 12 16 15 4 23 -14 8 -19
10 -51 12 -10 1 -18 9 -18 17 0 8 -4 15 -9 15 -35 0 -1 112 39 125 23 7 26 21
8 27 -7 2 -50 2 -95 0 -62 -3 -83 -8 -83 -18 0 -8 -7 -14 -15 -14 -20 0 -19
-16 1 -24 8 -3 12 -11 8 -17 -4 -7 1 -18 11 -25 11 -8 15 -19 11 -30 -3 -9 -1
-23 5 -30 9 -11 5 -16 -15 -25 -14 -7 -23 -16 -20 -20 3 -5 -4 -9 -15 -9 -12
0 -21 5 -21 10 0 6 -7 10 -15 10 -8 0 -15 -5 -15 -10 0 -6 -18 -17 -40 -26
-23 -9 -40 -23 -40 -32 0 -8 20 -34 44 -57 67 -65 71 -114 8 -115 -50 0 -52
-11 -52 -259 l0 -231 190 0 c181 0 190 1 190 19 0 11 -5 23 -11 27 -8 5 -8 9
1 14 7 4 9 13 6 19 -4 6 -11 9 -16 6 -5 -3 -8 3 -8 12 0 10 -3 26 -6 35 -5 12
0 22 19 34 22 14 30 15 50 4 13 -7 22 -17 19 -22 -3 -4 2 -8 10 -8 10 0 13 -6
10 -15 -4 -8 1 -17 10 -21 11 -4 14 -16 12 -44 -2 -21 -7 -43 -11 -49 -4 -8
182 -11 633 -11 612 0 640 1 656 19 19 21 100 32 152 21 21 -5 37 -4 40 2 4 7
32 8 73 5 73 -7 178 20 174 45 -1 7 -7 33 -13 58 -10 42 -10 46 12 64 21 17
36 18 208 12 234 -8 248 -8 277 8 l25 13 -32 0 c-20 0 -38 7 -46 18 -28 38
-10 109 30 125 24 9 254 21 481 25 133 3 355 20 432 35 31 5 58 10 59 10 1 0
4 12 7 27 14 75 36 145 50 161 19 21 106 178 164 295 36 75 43 97 43 149 0 74
34 144 115 234 30 34 51 64 48 68 -17 17 -45 1 -76 -45 -15 -21 -47 -17 -47 7
0 21 -38 54 -55 48 -8 -4 -15 -17 -15 -31 0 -47 -16 -62 -58 -56 -20 3 -45 13
-54 22 -34 32 -44 37 -79 39 -41 3 -56 -16 -39 -48 15 -28 12 -70 -4 -70 -8 0
-18 5 -21 10 -3 6 -15 10 -25 10 -10 0 -25 8 -32 18 -22 31 -53 43 -83 32 -26
-10 -27 -13 -20 -60 6 -45 5 -51 -21 -75 -27 -25 -40 -28 -106 -25 -28 1 -38
-3 -43 -19 -4 -14 -23 -25 -65 -37 -57 -16 -60 -18 -75 -64 -24 -74 -25 -90
-8 -124 10 -17 21 -60 25 -96 4 -36 11 -99 17 -140 5 -41 7 -78 4 -82 -2 -5
-40 -8 -83 -8 -58 0 -83 4 -94 16 -12 12 -16 12 -16 2 0 -10 -2 -10 -8 -1 -4
6 -34 14 -66 17 -33 3 -67 13 -76 21 -9 8 -22 15 -28 15 -6 0 -23 5 -39 12
-15 6 -34 10 -41 9 -20 -3 -42 18 -35 35 3 8 1 14 -3 15 -47 4 -87 26 -83 46
3 10 -17 62 -31 83 -5 8 -23 42 -40 75 -48 95 -80 148 -104 175 -36 39 -56 73
-56 92 0 18 -28 87 -56 140 -9 16 -12 28 -8 28 4 0 0 8 -8 18 -35 39 -42 93
-25 209 9 59 19 212 22 338 12 469 20 646 43 945 22 294 21 325 -7 353 l-23
22 6 -28z m1170 -2081 c19 -31 11 -56 -18 -56 -26 0 -46 18 -46 40 0 19 19 40
36 40 6 0 19 -11 28 -24z m-3263 -452 c7 -9 14 -41 15 -70 2 -52 1 -54 -25
-56 -63 -3 -83 7 -95 49 -5 16 2 31 25 57 34 39 59 45 80 20z m134 -104 c-3
-5 6 -12 20 -16 19 -5 24 -11 20 -25 -4 -11 -2 -19 4 -19 6 0 11 -9 11 -20 0
-21 33 -29 45 -10 11 17 61 11 80 -10 10 -11 15 -20 11 -20 -4 0 -2 -9 4 -19
10 -19 11 -19 41 -3 29 16 31 16 45 -3 25 -34 14 -59 -31 -67 -115 -23 -113
-23 -121 6 -7 29 -16 31 -62 15 l-31 -11 20 -31 c33 -56 22 -77 -41 -77 -29 0
-65 34 -54 52 3 4 -10 8 -28 8 -42 0 -57 10 -56 37 2 17 8 20 43 19 35 -1 39
1 35 19 -4 22 -4 52 3 130 6 61 3 55 28 55 11 0 17 -4 14 -10z m185 -315 c0
-8 -7 -15 -16 -15 -14 0 -14 3 -4 15 7 8 14 15 16 15 2 0 4 -7 4 -15z m40 -5
c0 -5 -7 -10 -16 -10 -8 0 -12 5 -9 10 3 6 10 10 16 10 5 0 9 -4 9 -10z m-435
-139 c-14 -12 -65 -23 -65 -13 0 16 13 22 44 22 17 0 26 -4 21 -9z m-5 -41 c0
-5 -10 -10 -22 -9 -22 0 -22 1 -3 9 11 5 21 9 23 9 1 1 2 -3 2 -9z"/>
<path d="M5050 3199 c0 -5 5 -7 10 -4 6 3 10 8 10 11 0 2 -4 4 -10 4 -5 0 -10
-5 -10 -11z"/>
<path d="M7840 3195 c-9 -11 -23 -14 -45 -9 -52 9 -57 -7 -52 -151 5 -140 9
-151 70 -165 27 -6 45 -3 69 9 35 17 45 41 47 117 1 33 -3 43 -21 52 -18 8
-19 11 -5 11 29 1 26 107 -5 134 -25 21 -42 22 -58 2z m0 -60 c0 -18 20 -57
35 -67 7 -5 7 -8 0 -8 -5 0 -11 -21 -13 -47 -3 -61 -21 -81 -57 -65 -14 7 -25
20 -25 31 0 11 -5 23 -10 26 -20 12 0 91 33 133 13 17 37 15 37 -3z"/>
<path d="M2750 3150 c-3 -74 1 -222 7 -236 9 -24 27 -10 35 27 8 38 -7 153
-27 208 l-14 36 -1 -35z"/>
<path d="M6410 3162 c0 -5 6 -16 13 -27 16 -20 31 -7 21 19 -6 16 -34 23 -34
8z"/>
<path d="M5508 3143 c7 -3 16 -2 19 1 4 3 -2 6 -13 5 -11 0 -14 -3 -6 -6z"/>
<path d="M5647 3093 c-11 -10 13 -32 29 -26 8 3 14 0 14 -6 0 -6 9 -11 20 -11
28 0 25 18 -5 26 -14 3 -25 10 -25 15 0 10 -24 12 -33 2z"/>
<path d="M5608 3083 c7 -3 16 -2 19 1 4 3 -2 6 -13 5 -11 0 -14 -3 -6 -6z"/>
<path d="M7995 3070 c4 -6 11 -8 16 -5 14 9 11 15 -7 15 -8 0 -12 -5 -9 -10z"/>
<path d="M9276 3025 c23 -105 74 -231 74 -180 0 21 -44 144 -64 181 l-16 29 6
-30z"/>
<path d="M5852 3011 c-10 -6 -10 -11 3 -21 19 -16 30 -7 18 14 -5 9 -13 12
-21 7z"/>
<path d="M726 2984 c-17 -44 3 -77 30 -50 8 9 23 20 32 26 16 9 16 11 -2 25
-26 19 -52 19 -60 -1z"/>
<path d="M5725 2980 c28 -12 37 -12 30 0 -3 6 -16 10 -28 9 -21 0 -21 -1 -2
-9z"/>
<path d="M5886 2981 c-4 -7 -5 -15 -2 -18 9 -9 19 4 14 18 -4 11 -6 11 -12 0z"/>
<path d="M5810 2951 c6 -12 15 -19 21 -16 5 4 14 -6 19 -21 8 -19 14 -24 21
-17 13 13 -7 49 -31 57 -8 3 -21 9 -28 12 -11 5 -12 2 -2 -15z"/>
<path d="M3810 2930 c0 -5 5 -10 10 -10 6 0 10 5 10 10 0 6 -4 10 -10 10 -5 0
-10 -4 -10 -10z"/>
<path d="M5296 2903 c-6 -26 -13 -33 -30 -33 -21 0 -23 -5 -24 -47 -1 -27 1
-79 5 -118 4 -56 7 -65 14 -46 14 35 51 251 46 264 -2 7 -7 -3 -11 -20z"/>
<path d="M5229 2907 c6 -8 8 -17 4 -20 -3 -4 -2 -7 4 -7 6 0 13 9 16 20 4 15
0 20 -15 20 -16 0 -18 -3 -9 -13z"/>
<path d="M6433 2895 c8 -16 18 -41 21 -55 6 -22 4 -21 -14 8 -30 45 -33 40 -7
-11 12 -24 25 -39 28 -34 3 5 6 -4 6 -20 0 -15 3 -46 7 -68 6 -38 6 -38 -12
11 -19 54 -47 97 -81 128 -14 13 0 -25 44 -116 36 -75 65 -147 65 -161 0 -14
5 -29 10 -32 6 -4 10 31 10 97 0 117 -22 201 -66 253 l-25 30 14 -30z"/>
<path d="M1080 2874 c-6 -14 -10 -26 -10 -27 0 -9 53 2 63 12 9 10 8 15 -7 27
-27 20 -35 18 -46 -12z"/>
<path d="M5646 2885 c-8 -9 -17 -11 -21 -6 -8 13 -51 -4 -47 -18 1 -6 -2 -11
-7 -11 -5 0 -13 -9 -16 -20 -3 -11 -13 -20 -21 -20 -8 0 -14 -5 -14 -11 0 -8
-5 -8 -15 1 -13 11 -15 8 -15 -19 0 -17 -4 -31 -9 -31 -8 0 -56 -100 -81 -172
-8 -20 -17 -35 -22 -32 -4 3 -8 1 -8 -5 0 -5 -3 -16 -6 -24 -4 -11 11 -27 47
-50 43 -30 56 -34 78 -26 14 5 32 12 40 14 11 4 11 8 1 20 -14 17 -35 21 -25
5 3 -5 1 -10 -4 -10 -16 0 -13 18 4 28 14 7 13 12 -5 34 -22 28 -25 78 -6 113
6 11 11 22 11 25 4 22 18 50 26 50 5 0 9 10 9 23 0 15 3 18 8 9 7 -9 13 -8 27
8 10 11 15 23 12 26 -3 4 4 15 16 25 21 18 21 18 2 19 -15 0 -17 2 -6 9 8 5
10 14 6 21 -6 10 -1 11 19 6 15 -4 26 -2 26 4 0 5 7 10 15 10 8 0 15 5 15 10
0 15 -16 12 -34 -5z"/>
<path d="M5094 2877 c1 -6 7 -22 14 -34 7 -12 12 -29 12 -37 0 -9 5 -16 11
-16 5 0 8 -4 5 -8 -3 -5 1 -20 8 -33 7 -14 16 -40 20 -59 6 -31 59 -100 76
-100 15 0 -30 198 -57 248 -24 47 -53 69 -53 42 0 -7 -6 -7 -19 0 -14 7 -19 7
-17 -3z"/>
<path d="M5942 2864 c-11 -12 -9 -14 8 -14 11 0 20 4 20 9 0 17 -15 19 -28 5z"/>
<path d="M7384 2805 c-4 -8 -10 -12 -15 -9 -5 3 -9 -2 -9 -10 0 -8 10 -20 21
-27 26 -13 53 8 44 33 -9 23 -35 31 -41 13z"/>
<path d="M750 2790 c0 -19 11 -26 23 -14 8 8 -3 34 -14 34 -5 0 -9 -9 -9 -20z"/>
<path d="M1129 2797 c-1 -6 -1 -15 0 -19 0 -5 -15 -8 -34 -8 -36 0 -55 -20
-55 -59 0 -16 6 -21 26 -21 14 0 34 -10 43 -22 21 -25 41 -17 41 18 0 39 18
64 45 64 29 0 31 8 7 35 -19 23 -71 32 -73 12z"/>
<path d="M5058 2794 c-4 -3 1 -14 10 -24 10 -10 30 -37 47 -59 16 -23 31 -37
33 -32 6 19 -79 127 -90 115z"/>
<path d="M7073 2790 c-29 -12 -29 -28 -1 -39 14 -5 17 -10 10 -15 -7 -4 -12
-15 -11 -24 0 -13 3 -11 9 5 5 12 21 30 36 39 25 17 25 19 8 31 -20 15 -21 15
-51 3z"/>
<path d="M6967 2784 c-9 -9 4 -35 14 -28 5 3 9 12 9 20 0 14 -12 19 -23 8z"/>
<path d="M871 2766 c-8 -9 -11 -19 -7 -23 9 -9 29 13 24 27 -2 8 -8 7 -17 -4z"/>
<path d="M4416 2737 c-7 -48 0 -80 18 -74 15 5 15 117 0 117 -7 0 -15 -19 -18
-43z"/>
<path d="M5960 2760 c0 -5 5 -10 10 -10 6 0 10 5 10 10 0 6 -4 10 -10 10 -5 0
-10 -4 -10 -10z"/>
<path d="M9360 2749 c0 -11 9 -33 21 -47 l21 -27 -7 30 c-13 56 -16 65 -26 65
-5 0 -9 -9 -9 -21z"/>
<path d="M745 2740 c-3 -5 -14 -10 -24 -10 -15 0 -19 -8 -19 -42 -1 -124 20
-159 65 -108 l22 25 -32 33 -32 33 22 40 c12 21 17 39 13 39 -5 0 -12 -4 -15
-10z"/>
<path d="M5301 2734 c0 -11 3 -14 6 -6 3 7 2 16 -1 19 -3 4 -6 -2 -5 -13z"/>
<path d="M4934 2674 c3 -9 6 -18 6 -20 0 -3 5 -2 10 1 16 10 12 35 -6 35 -11
0 -14 -5 -10 -16z"/>
<path d="M9404 2645 c5 -48 64 -238 93 -302 21 -45 28 -81 34 -162 5 -62 4
-114 -2 -129 -11 -29 4 -45 35 -38 11 3 26 0 33 -6 15 -12 19 -4 27 64 5 40 1
56 -25 105 -17 32 -39 78 -49 103 -10 25 -35 86 -55 135 -21 50 -50 128 -66
175 -16 47 -27 72 -25 55z"/>
<path d="M6003 2648 c-4 -7 -9 -38 -9 -68 -2 -89 -3 -98 -16 -97 -43 1 -51 -3
-37 -20 12 -14 12 -16 0 -8 -11 6 -13 4 -8 -8 4 -12 1 -17 -11 -18 -32 -1 -86
-9 -90 -14 -3 -2 -13 0 -23 5 -12 7 -20 6 -25 -1 -4 -8 -9 -7 -15 2 -7 11 -9
11 -9 -1 1 -8 7 -23 15 -34 11 -14 11 -22 2 -37 -16 -26 -22 -24 -25 7 -1 17
2 23 10 18 7 -4 8 -3 4 4 -4 7 -14 12 -21 12 -8 0 -17 11 -21 25 -3 14 -11 25
-18 24 -6 -1 -24 -1 -41 0 -24 1 -27 3 -15 12 11 7 6 8 -19 4 -22 -5 -31 -4
-27 3 7 12 -26 8 -47 -5 -6 -4 -16 -8 -21 -8 -5 0 -11 -6 -14 -14 -3 -10 1
-12 17 -8 14 3 21 1 21 -10 0 -8 -4 -12 -9 -8 -5 3 -12 2 -15 -3 -3 -5 9 -17
27 -27 18 -10 59 -39 92 -63 108 -81 227 -122 347 -122 37 0 47 3 42 13 -6 9
-5 9 8 0 8 -7 18 -10 21 -6 10 10 8 53 -2 53 -5 0 -3 18 5 39 10 29 11 53 4
92 -5 30 -12 76 -15 102 -2 27 -8 53 -11 59 -4 6 -9 21 -11 32 -15 90 -21 102
-40 74z"/>
<path d="M5294 2586 c-19 -14 -19 -15 5 -40 14 -14 30 -26 38 -26 19 0 17 66
-3 74 -20 8 -17 8 -40 -8z"/>
<path d="M6476 2510 c3 -36 10 -83 15 -105 6 -31 8 -22 5 40 -3 44 -9 91 -15
105 -9 20 -10 12 -5 -40z"/>
<path d="M8760 2516 c0 -38 -21 -378 -26 -423 -7 -71 -24 -67 -24 5 0 33 -11
124 -25 203 -13 79 -26 162 -29 184 -2 22 -2 -5 0 -60 2 -55 6 -113 10 -130 5
-29 5 -29 -11 -10 -16 20 -16 19 -11 -5 3 -14 10 -52 17 -85 6 -33 29 -118 51
-190 l40 -130 4 -380 c3 -213 10 -420 17 -470 6 -49 12 -202 12 -340 1 -137 4
-251 8 -252 18 -7 25 -1 31 29 6 32 6 32 22 10 8 -12 21 -22 29 -22 7 0 15
-12 17 -27 2 -22 8 -27 23 -25 11 1 31 3 46 3 29 0 57 34 35 42 -7 3 -27 4
-44 3 -18 -1 -32 1 -32 5 0 9 40 17 106 21 39 3 41 2 31 -19 -12 -27 -1 -73
18 -73 27 0 16 -19 -19 -34 -49 -21 -51 -33 -4 -34 23 -1 47 -7 53 -13 7 -9 6
-10 -2 -5 -9 5 -12 -4 -10 -34 1 -24 7 -40 15 -40 6 0 12 -8 12 -17 0 -15 -2
-16 -10 -3 -8 12 -10 12 -10 1 0 -8 8 -20 18 -28 16 -14 16 -14 -3 -9 -19 6
-19 5 -3 -8 21 -16 21 -103 1 -99 -8 2 -10 -4 -6 -14 4 -10 2 -14 -5 -9 -6 3
-14 1 -18 -5 -4 -7 -3 -9 3 -6 6 4 13 0 17 -8 4 -11 23 -15 77 -15 l71 0 -6
33 c-8 47 -15 145 -21 288 -2 69 -7 133 -11 142 -3 9 -1 30 4 46 6 16 8 39 5
51 -5 18 -10 20 -37 13 -83 -21 -172 5 -233 69 -56 58 -79 145 -108 408 -9 80
-27 215 -40 300 -25 158 -28 201 -25 350 0 47 -3 100 -9 117 -6 20 -7 162 -4
373 4 187 3 340 0 340 -4 0 -7 -6 -7 -14z"/>
<path d="M721 2501 c-8 -5 -11 -16 -8 -25 4 -9 1 -29 -5 -44 -6 -15 -10 -31
-9 -35 1 -4 -5 -15 -14 -23 -19 -20 -19 -26 3 -51 20 -23 83 -43 64 -20 -12
14 -5 54 18 97 9 16 9 25 1 33 -6 6 -11 18 -11 27 0 27 -23 51 -39 41z"/>
<path d="M6162 2501 c-11 -7 -11 -9 2 -14 10 -4 16 -1 16 8 0 17 -1 17 -18 6z"/>
<path d="M6145 2460 c-4 -6 -12 -7 -18 -4 -7 4 -9 3 -4 -1 4 -5 16 -10 27 -12
14 -2 18 2 14 12 -7 18 -11 19 -19 5z"/>
<path d="M6180 2450 c0 -5 5 -10 10 -10 6 0 10 5 10 10 0 6 -4 10 -10 10 -5 0
-10 -4 -10 -10z"/>
<path d="M6777 2429 c7 -7 15 -10 18 -7 3 3 -2 9 -12 12 -14 6 -15 5 -6 -5z"/>
<path d="M6193 2410 c3 -11 1 -23 -4 -26 -5 -3 -9 2 -9 10 0 9 -4 16 -10 16
-5 0 -10 -12 -10 -27 0 -19 -3 -24 -9 -15 -7 11 -9 11 -14 -2 -5 -11 -1 -16
13 -16 15 0 20 -7 20 -25 0 -14 -6 -25 -12 -25 -9 0 -8 -4 2 -10 8 -5 11 -10
6 -10 -5 0 -3 -6 3 -13 6 -8 7 -17 3 -21 -15 -16 -8 -71 11 -88 25 -22 84 -41
103 -34 9 3 12 1 9 -4 -3 -6 -2 -10 3 -10 5 0 12 11 14 25 3 14 1 25 -4 25 -5
0 -6 5 -2 12 11 18 9 60 -4 85 -7 12 -9 24 -4 27 4 2 6 22 4 44 -4 43 -32 82
-59 82 -14 0 -14 -2 3 -15 15 -12 16 -14 3 -15 -9 0 -21 11 -27 25 -14 30 -37
34 -29 5z"/>
<path d="M110 2315 c0 -8 4 -15 10 -15 5 0 7 7 4 15 -4 8 -8 15 -10 15 -2 0
-4 -7 -4 -15z"/>
<path d="M7399 2304 c-8 -9 -14 -35 -15 -58 -1 -65 -14 -105 -35 -111 -11 -4
-19 -15 -19 -27 0 -12 -6 -29 -14 -37 -7 -9 -16 -32 -20 -51 -5 -32 -2 -40 31
-72 36 -35 41 -37 113 -38 41 -1 81 -1 88 -1 16 1 15 68 -2 150 -7 35 -13 82
-12 103 2 29 -2 38 -13 36 -11 -2 -14 -18 -12 -70 1 -39 -2 -68 -7 -68 -14 0
-19 18 -21 85 -1 33 -6 62 -11 65 -5 3 -11 25 -14 49 -6 54 -18 68 -37 45z"/>
<path d="M0 2269 c0 -5 5 -7 10 -4 5 3 10 8 10 11 0 2 -4 4 -10 4 -5 0 -10 -5
-10 -11z"/>
<path d="M6528 2265 c-3 -5 -9 -55 -13 -111 -6 -87 -5 -103 10 -117 9 -9 25
-17 35 -17 10 0 25 -3 33 -6 21 -8 13 42 -19 118 -15 35 -30 81 -33 103 -4 22
-9 36 -13 30z"/>
<path d="M6 2234 c-8 -22 1 -34 26 -34 14 0 18 5 14 16 -3 9 -6 20 -6 25 0 15
-27 10 -34 -7z"/>
<path d="M1320 2217 c0 -9 -8 -24 -18 -34 -44 -42 -30 -74 29 -65 28 4 30 7
23 36 -3 17 -11 37 -18 45 -6 8 -9 16 -8 18 2 3 1 7 -2 11 -3 3 -6 -2 -6 -11z"/>
<path d="M7 2173 c-13 -12 -8 -468 5 -481 7 -7 8 -12 4 -12 -5 0 -3 -7 4 -15
10 -12 9 -15 -4 -15 -15 0 -16 -18 -14 -172 3 -182 3 -182 48 -164 8 3 22 0
31 -7 18 -14 34 -77 19 -77 -6 0 -19 -9 -30 -20 l-20 -20 20 -20 c11 -11 24
-20 29 -20 5 0 13 -9 16 -20 3 -11 12 -20 20 -20 27 0 69 -30 81 -60 7 -16 24
-34 38 -40 13 -5 27 -18 31 -29 3 -10 12 -24 19 -31 18 -14 66 -2 66 16 0 8 5
14 11 14 5 0 7 5 4 11 -11 17 26 49 71 60 24 6 45 17 48 25 3 8 18 19 33 25
25 9 26 11 10 20 -13 8 -22 6 -33 -6 -21 -21 -83 -16 -98 7 -8 13 -5 23 14 43
29 31 37 31 70 0 24 -23 27 -24 54 -9 21 10 31 11 36 3 5 -7 20 2 44 25 41 42
42 45 20 72 -11 13 -17 15 -20 7 -3 -7 -11 -13 -19 -13 -18 0 -40 -29 -40 -54
0 -14 -7 -22 -23 -24 -37 -5 -55 5 -44 25 6 10 6 22 0 32 -11 18 15 91 32 91
6 0 0 11 -12 24 l-23 24 -23 -22 c-21 -18 -23 -27 -18 -69 6 -44 5 -48 -19
-59 -45 -20 -99 25 -68 56 12 11 10 29 -3 43 -9 9 -10 23 -2 49 11 43 3 56
-17 27 -16 -23 -65 -21 -65 3 0 8 -7 14 -16 14 -15 0 -15 2 0 24 15 23 14 25
-5 31 -13 4 -18 12 -14 23 4 13 -6 21 -44 35 -27 9 -56 17 -65 17 -9 0 -16 5
-16 11 0 5 5 7 12 3 7 -4 8 -3 4 4 -4 7 -16 12 -26 12 -32 0 -39 79 -7 80 7 1
1 7 -13 15 -14 8 -19 14 -12 15 7 0 11 3 9 8 -3 4 9 7 26 6 21 -1 40 7 56 22
13 13 29 24 35 24 6 0 4 5 -4 10 -11 7 -7 10 17 10 44 0 83 20 83 41 0 26 -10
28 -65 13 -68 -17 -92 -10 -98 29 -3 18 -1 36 4 42 17 18 9 23 -46 27 -30 3
-58 8 -62 11 -3 4 10 23 31 43 27 26 42 34 59 30 12 -3 7 1 -11 10 -23 10 -32
20 -28 29 3 8 0 15 -6 15 -9 0 -9 3 -1 11 15 15 5 47 -17 54 -10 3 -17 11 -17
18 1 34 -5 47 -21 47 -10 0 -22 -3 -25 -7z m113 -430 c-8 -3 -24 -13 -35 -22
-20 -16 -20 -16 -1 7 11 12 26 22 35 21 14 0 14 -1 1 -6z m179 -596 c-2 -1
-14 -11 -26 -21 -13 -11 -23 -16 -23 -13 0 10 31 37 42 37 6 0 9 -1 7 -3z m31
-66 c0 -12 -46 -20 -61 -10 -8 5 -2 9 17 12 16 2 32 5 37 6 4 0 7 -3 7 -8z"/>
<path d="M246 2021 c-4 -7 -5 -15 -2 -18 9 -9 19 4 14 18 -4 11 -6 11 -12 0z"/>
<path d="M163 1983 c4 -3 2 -12 -4 -19 -14 -17 -4 -44 16 -44 8 0 15 -4 15
-10 0 -5 5 -10 10 -10 6 0 8 11 4 27 -6 22 -4 25 11 19 14 -5 16 -4 7 7 -9 10
-8 17 0 25 9 9 3 12 -27 12 -21 0 -35 -3 -32 -7z"/>
<path d="M8133 1973 c9 -2 25 -2 35 0 9 3 1 5 -18 5 -19 0 -27 -2 -17 -5z"/>
<path d="M9610 1923 c0 -20 -7 -36 -17 -42 -14 -8 -15 -10 -3 -11 13 0 13 -1
0 -10 -11 -7 -11 -10 -2 -10 7 0 10 -4 7 -10 -3 -5 0 -10 8 -10 17 0 37 -49
37 -94 1 -17 9 -49 20 -71 l20 -40 -5 40 c-2 22 -7 75 -10 118 -4 53 -13 92
-30 125 -24 47 -24 47 -25 15z"/>
<path d="M246 1845 c4 -8 15 -15 25 -15 10 0 19 7 19 15 0 9 -9 15 -25 15 -18
0 -23 -4 -19 -15z"/>
<path d="M570 1835 c-7 -8 -19 -15 -27 -15 -8 0 -11 -5 -8 -10 5 -8 12 -7 22
2 14 12 15 9 9 -25 -5 -29 -4 -39 8 -43 9 -3 13 -10 10 -15 -3 -5 2 -12 10
-15 9 -3 16 -10 16 -16 0 -5 6 -16 14 -24 8 -7 16 -19 19 -26 7 -19 35 11 41
43 4 25 1 27 -38 33 l-42 7 2 46 c2 25 5 52 8 60 7 18 -28 17 -44 -2z"/>
<path d="M6940 1819 c0 -5 5 -7 10 -4 6 3 10 8 10 11 0 2 -4 4 -10 4 -5 0 -10
-5 -10 -11z"/>
<path d="M8414 1720 c-107 -109 -114 -113 -329 -170 -44 -12 -95 -27 -114 -33
-32 -11 -32 -12 -10 -18 13 -4 44 -7 68 -8 63 -1 211 -24 211 -32 0 -12 -122
-22 -308 -25 -175 -3 -308 -19 -392 -46 l-35 -12 40 -9 c22 -4 148 -9 280 -11
239 -3 335 -10 335 -27 0 -5 -3 -8 -7 -7 -5 1 -64 -2 -133 -6 -190 -13 -223
-14 -535 -21 -344 -7 -535 -15 -535 -24 1 -30 19 -31 593 -36 664 -5 815 -11
791 -35 -5 -5 -20 -11 -34 -14 -14 -3 -41 -10 -60 -16 -21 -6 -67 -8 -116 -4
-86 7 -111 -3 -82 -33 11 -11 51 -15 169 -18 85 -3 172 -7 194 -10 22 -3 54
-1 72 4 41 12 73 4 73 -19 0 -29 -49 -37 -290 -46 -74 -3 -216 -7 -315 -8 -99
-1 -191 -7 -205 -12 -16 -7 -117 -7 -295 -1 -265 9 -271 9 -328 -13 -67 -25
-65 -42 5 -43 72 -1 793 13 938 19 74 2 256 5 403 6 191 2 266 5 263 13 -2 6
-9 63 -16 126 -6 63 -18 176 -26 252 -8 76 -12 161 -8 188 5 35 3 49 -5 49
-18 0 -62 52 -59 69 2 9 15 17 31 19 29 4 36 27 17 63 -8 15 -21 19 -59 19
-31 0 -53 5 -61 15 -7 8 -16 15 -20 15 -5 0 -52 -45 -106 -100z"/>
<path d="M10200 1750 c0 -5 -16 -10 -35 -10 l-36 0 4 -182 c3 -101 5 -202 5
-225 1 -23 23 -103 49 -178 l48 -137 3 82 c3 80 2 83 -42 166 -25 47 -41 82
-35 79 5 -4 20 -27 34 -53 13 -26 29 -54 34 -62 8 -10 11 68 11 258 0 265 0
272 -20 272 -11 0 -20 -4 -20 -10z"/>
<path d="M180 1630 c0 -5 5 -10 10 -10 6 0 10 5 10 10 0 6 -4 10 -10 10 -5 0
-10 -4 -10 -10z"/>
<path d="M790 1589 c0 -5 5 -7 10 -4 6 3 10 8 10 11 0 2 -4 4 -10 4 -5 0 -10
-5 -10 -11z"/>
<path d="M4291 1562 c-19 -9 -37 -23 -39 -29 -2 -8 13 -4 37 9 23 12 41 25 41
30 0 11 0 11 -39 -10z"/>
<path d="M785 1560 c4 -6 11 -8 16 -5 14 9 11 15 -7 15 -8 0 -12 -5 -9 -10z"/>
<path d="M677 1469 c-25 -13 -37 -26 -35 -37 6 -29 35 -25 58 8 30 42 22 52
-23 29z"/>
<path d="M356 1435 c4 -9 11 -14 16 -13 15 5 11 23 -6 26 -11 2 -14 -2 -10
-13z"/>
<path d="M714 1439 c-7 -12 15 -41 27 -33 14 8 11 31 -6 37 -8 4 -17 2 -21 -4z"/>
<path d="M7300 1406 c-24 -24 -8 -33 65 -34 74 -2 74 -2 66 20 -7 20 -15 23
-65 23 -31 0 -61 -4 -66 -9z"/>
<path d="M3280 1220 c0 -13 5 -20 13 -17 6 2 12 10 12 17 0 7 -6 15 -12 18 -8
2 -13 -5 -13 -18z"/>
<path d="M7255 1161 c-66 -4 -125 -10 -132 -14 -6 -4 -37 -4 -67 1 -48 8 -55
7 -59 -9 -3 -10 0 -22 7 -27 6 -5 174 -8 376 -6 279 2 374 6 403 16 35 13 37
15 22 28 -18 15 -335 22 -550 11z"/>
<path d="M719 1106 c-3 -3 -3 -23 -1 -45 3 -33 8 -41 24 -41 15 0 18 4 13 18
-3 9 -9 29 -12 45 -5 25 -14 33 -24 23z"/>
<path d="M10137 1023 c-10 -9 -8 -55 2 -72 5 -8 16 -11 25 -8 22 9 22 73 0 81
-19 7 -19 7 -27 -1z"/>
<path d="M10137 906 c-9 -23 8 -71 26 -74 24 -5 42 39 28 67 -13 24 -46 28
-54 7z"/>
<path d="M4315 870 c-62 -13 -121 -64 -105 -90 8 -13 13 -13 42 2 18 9 62 24
97 33 62 15 97 32 86 43 -10 10 -90 18 -120 12z"/>
<path d="M4380 743 c-139 -10 -179 -23 -368 -120 -244 -124 -392 -236 -392
-296 0 -19 3 -18 20 11 22 35 40 42 40 15 0 -10 7 -30 14 -46 13 -24 13 -27 0
-27 -12 0 -13 -4 -4 -21 10 -17 8 -21 -9 -26 -25 -6 -27 -22 -6 -49 8 -10 15
-35 15 -54 0 -29 2 -32 11 -17 5 9 7 22 3 29 -5 7 -3 8 5 3 7 -4 11 -16 8 -26
-3 -10 1 -23 8 -29 8 -7 12 -26 9 -50 l-4 -40 634 0 c618 0 634 0 629 19 -3
10 2 30 10 42 9 13 16 45 15 71 0 26 3 51 6 56 7 12 -23 101 -57 168 -23 45
-25 56 -15 88 11 34 9 39 -27 92 -21 31 -50 63 -63 72 -14 10 -37 30 -53 47
-46 47 -135 35 -122 -16 3 -11 8 -18 11 -15 2 3 23 -10 45 -29 22 -19 44 -35
49 -35 4 0 8 -4 8 -10 0 -5 -3 -9 -7 -9 -21 3 -22 -4 -8 -33 l16 -33 -26 30
c-101 115 -158 175 -168 175 -7 0 -39 12 -72 26 -74 31 -110 40 -155 37z m27
-375 c-3 -7 -5 -2 -5 12 0 14 2 19 5 13 2 -7 2 -19 0 -25z m517 -77 c28 -55
43 -101 28 -86 -23 23 -81 144 -66 138 8 -3 25 -26 38 -52z"/>
<path d="M9698 731 c-32 -5 -54 -15 -71 -33 -14 -15 -44 -32 -68 -38 -24 -6
-60 -16 -79 -22 -19 -6 -71 -19 -115 -28 l-80 -16 -3 -37 c-3 -33 -1 -37 21
-37 13 0 59 11 103 24 85 27 97 29 131 27 20 -1 23 -6 21 -42 -1 -33 3 -45 22
-59 l24 -18 -52 -33 c-55 -34 -55 -49 1 -49 25 0 27 -3 21 -22 -3 -13 -11 -24
-15 -26 -5 -2 -9 -13 -9 -23 0 -11 5 -17 10 -14 6 3 10 -1 10 -9 0 -8 10 -22
21 -30 21 -14 21 -16 5 -41 -10 -15 -16 -28 -14 -29 2 -1 16 -8 32 -14 27 -12
28 -13 11 -32 -17 -19 -17 -20 11 -31 26 -10 68 -19 99 -22 15 -1 16 -38 2
-55 -10 -13 -8 -14 12 -7 15 5 21 4 17 -3 -4 -7 65 -11 215 -12 l221 -1 -4 96
c-2 52 -6 95 -9 95 -3 0 -5 15 -4 34 3 26 0 33 -13 32 -9 -2 -20 -16 -26 -32
-5 -16 -15 -34 -22 -41 -17 -17 -46 -5 -40 16 5 15 26 138 30 171 1 9 5 21 10
28 4 7 4 38 0 70 -16 119 -13 144 25 180 19 17 41 32 49 32 21 0 10 10 -17 15
-11 2 -26 7 -31 10 -10 6 -357 36 -390 33 -8 0 -36 -4 -62 -7z m-52 -385 c-8
-44 -36 -57 -36 -16 0 27 27 67 37 56 3 -3 2 -21 -1 -40z"/>
<path d="M6702 573 c-16 -6 15 -32 38 -32 12 0 12 2 -2 13 -10 7 -15 16 -11
19 7 8 -6 8 -25 0z"/>
<path d="M6223 215 c0 -22 2 -30 4 -17 2 12 2 30 0 40 -3 9 -5 -1 -4 -23z"/>
<path d="M6341 145 c-58 -14 -109 -29 -115 -35 -5 -5 -15 -24 -21 -42 -7 -18
-16 -41 -20 -51 -7 -18 1 -18 186 -13 224 6 199 4 199 15 0 5 -39 12 -87 16
-49 4 -97 11 -107 15 -18 6 -17 8 8 14 15 4 31 4 36 1 6 -4 10 -2 10 3 0 5 14
12 31 16 16 3 37 13 46 22 12 11 18 12 23 4 6 -9 9 -9 11 -1 3 9 16 9 49 2 44
-10 148 -15 139 -7 -2 2 -20 6 -39 8 -19 3 -34 8 -32 13 2 5 -21 15 -50 23
-96 24 -156 23 -267 -3z"/>
</g>
</svg>
