<?xml version="1.0" standalone="no"?>
<!DOCTYPE svg PUBLIC "-//W3C//DTD SVG 20010904//EN"
 "http://www.w3.org/TR/2001/REC-SVG-20010904/DTD/svg10.dtd">
<svg version="1.0" xmlns="http://www.w3.org/2000/svg"
 width="256.000000pt" height="256.000000pt" viewBox="0 0 256.000000 256.000000"
 preserveAspectRatio="xMidYMid meet">

<g transform="translate(0.000000,256.000000) scale(0.100000,-0.100000)"
fill="#000000" stroke="none">
<path d="M1535 2420 c-18 -19 -17 -20 3 -20 15 0 22 6 22 20 0 11 -2 20 -3 20
-2 0 -12 -9 -22 -20z"/>
<path d="M2381 2426 c-8 -9 -11 -19 -7 -23 9 -9 29 13 24 27 -2 8 -8 7 -17 -4z"/>
<path d="M706 2415 c-19 -15 -19 -15 2 -15 13 0 22 6 22 15 0 18 0 18 -24 0z"/>
<path d="M1905 2320 c-3 -5 15 -45 40 -88 25 -44 45 -83 45 -88 0 -5 -12 -27
-26 -49 l-25 -40 31 37 32 38 45 -63 c58 -79 100 -127 132 -152 14 -11 2 7
-27 40 -59 66 -132 171 -132 189 0 6 32 45 70 86 38 41 65 77 59 79 -6 2 -15
-3 -20 -10 -14 -23 -114 -138 -120 -138 -3 -1 -25 37 -48 84 -24 47 -44 85
-46 85 -2 0 -7 -4 -10 -10z"/>
<path d="M897 2293 c-10 -10 -8 -53 2 -53 5 0 7 9 4 21 -4 12 0 25 8 30 8 5 9
9 3 9 -6 0 -14 -3 -17 -7z"/>
<path d="M1752 2288 c-27 -34 -20 -109 10 -107 10 0 10 2 1 6 -17 6 -17 85 -1
101 7 7 9 12 6 12 -3 0 -10 -6 -16 -12z"/>
<path d="M99 2285 c0 -3 -1 -23 -1 -45 0 -57 1 -64 7 -58 10 10 13 108 4 108
-5 0 -9 -2 -10 -5z"/>
<path d="M1080 2278 c0 -7 25 -47 56 -88 30 -41 57 -85 60 -97 4 -13 10 -23
15 -23 5 0 25 -25 45 -55 20 -30 39 -55 41 -55 6 0 -16 40 -48 87 -16 23 -29
45 -29 48 0 11 124 165 133 165 4 0 7 5 7 10 0 25 -22 4 -79 -75 -34 -47 -65
-85 -69 -85 -8 0 -71 97 -96 148 -17 32 -36 43 -36 20z"/>
<path d="M488 2218 c-35 -36 -123 -158 -115 -158 3 0 28 31 57 70 28 38 63 78
78 89 15 11 24 23 20 27 -4 4 -22 -9 -40 -28z"/>
<path d="M935 2237 c18 -14 18 -18 6 -39 -13 -22 -13 -22 5 -5 20 19 12 47
-17 55 -8 2 -5 -3 6 -11z"/>
<path d="M1802 2231 c9 -15 9 -23 -2 -38 -13 -17 -13 -17 4 -2 18 17 15 59 -5
59 -5 0 -4 -9 3 -19z"/>
<path d="M52 2228 c-14 -14 -16 -28 -3 -28 5 0 11 9 14 20 6 23 5 24 -11 8z"/>
<path d="M220 2225 c0 -3 27 -48 61 -100 34 -52 59 -102 56 -110 -4 -8 -1 -12
6 -9 7 2 28 -16 47 -41 18 -25 35 -45 37 -45 5 0 -3 15 -39 68 -16 23 -26 47
-23 52 3 6 0 10 -8 10 -12 0 -85 116 -103 163 -5 15 -34 25 -34 12z"/>
<path d="M691 1856 l-24 -26 22 0 c22 0 36 20 29 40 -2 6 -14 0 -27 -14z"/>
<path d="M1535 1860 c-18 -19 -17 -20 3 -20 15 0 22 6 22 20 0 11 -2 20 -3 20
-2 0 -12 -9 -22 -20z"/>
<path d="M2391 1860 l-23 -20 26 0 c19 0 26 5 26 20 0 24 1 24 -29 0z"/>
<path d="M1305 1675 c-102 -95 -97 -95 -141 3 -22 49 -37 62 -48 44 -2 -4 15
-40 40 -80 l44 -72 -32 -37 -32 -38 30 28 c17 15 34 27 40 27 5 0 19 -15 31
-33 33 -46 96 -116 84 -92 -5 11 -30 49 -56 85 l-46 65 59 55 c32 30 79 72
103 92 24 20 37 37 29 37 -8 0 -55 -37 -105 -84z"/>
<path d="M7 1724 c-4 -4 -6 -35 -6 -68 l1 -61 9 55 c10 59 9 87 -4 74z"/>
<path d="M121 1730 c-1 -3 -5 -34 -8 -70 -3 -48 -2 -62 7 -54 7 7 10 35 7 70
-2 32 -4 57 -6 54z"/>
<path d="M370 1723 c0 -4 11 -30 25 -58 13 -27 25 -55 25 -61 0 -6 -26 -33
-57 -59 -80 -67 -170 -154 -196 -190 -12 -16 7 0 43 36 69 69 199 179 212 179
4 0 21 -29 37 -65 35 -78 50 -87 19 -12 -37 90 -33 104 45 156 37 25 62 48 57
49 -6 2 -35 -14 -65 -37 -29 -22 -59 -42 -66 -43 -7 -2 -22 21 -33 51 -12 30
-27 56 -34 59 -6 2 -12 0 -12 -5z"/>
<path d="M851 1668 c1 -50 3 -57 9 -33 11 45 11 95 0 95 -6 0 -9 -27 -9 -62z"/>
<path d="M987 1706 c4 -18 -3 -29 -26 -47 -31 -23 -48 -49 -31 -49 6 0 10 6
10 13 0 8 12 20 26 28 28 14 45 45 37 67 -9 22 -20 13 -16 -12z"/>
<path d="M1723 1670 c0 -36 2 -50 4 -32 2 17 2 47 0 65 -2 17 -4 3 -4 -33z"/>
<path d="M1855 1712 c4 -15 2 -24 -10 -28 -14 -6 -14 -7 1 -18 23 -17 14 -49
-16 -57 -23 -6 -23 -7 -3 -8 21 -1 53 22 53 38 0 5 -7 14 -15 21 -11 9 -12 16
-2 31 9 14 9 21 -2 31 -11 11 -12 9 -6 -10z"/>
<path d="M1960 1690 c0 -6 28 -37 63 -69 64 -61 70 -83 17 -61 -38 16 -105 8
-131 -16 -26 -23 -24 -60 5 -85 36 -31 33 -102 -5 -147 -55 -63 -33 -128 48
-141 37 -6 38 -8 38 -48 0 -23 6 -48 14 -55 11 -11 12 -9 7 9 -13 43 3 89 37
104 17 8 39 26 50 40 17 24 18 31 7 64 -7 21 -22 41 -35 47 -39 18 -49 102
-15 133 11 10 20 31 20 47 0 15 3 28 8 28 8 0 44 -43 115 -139 72 -97 56 -57
-19 50 -37 52 -67 99 -68 106 -1 12 119 113 135 113 5 0 9 5 9 10 0 24 -36 6
-89 -45 -32 -30 -61 -55 -65 -55 -4 0 -33 27 -64 60 -54 56 -82 73 -82 50z"/>
<path d="M1114 1468 l-19 -23 23 19 c21 18 27 26 19 26 -2 0 -12 -10 -23 -22z"/>
<path d="M670 1275 l-23 -25 26 0 c22 0 27 5 27 25 0 14 -1 25 -3 25 -2 0 -14
-11 -27 -25z"/>
<path d="M1537 1274 l-28 -24 26 0 c14 0 28 7 31 15 11 29 -2 33 -29 9z"/>
<path d="M2408 1269 c-17 -18 -17 -19 7 -19 18 0 25 5 25 20 0 25 -10 24 -32
-1z"/>
<path d="M435 1068 l-99 -112 -15 25 c-91 139 -121 173 -137 156 -4 -4 8 -24
28 -45 30 -31 75 -93 101 -138 4 -7 -3 -25 -15 -40 l-22 -29 26 23 25 23 50
-68 c56 -75 83 -101 128 -128 24 -14 21 -10 -11 18 -39 34 -101 110 -138 168
-17 26 -17 27 52 100 114 123 145 159 135 159 -5 0 -53 -50 -108 -112z"/>
<path d="M1339 1108 c-39 -40 -82 -88 -96 -105 -14 -18 -29 -33 -35 -33 -5 0
-28 42 -52 94 -44 95 -58 112 -77 101 -7 -5 -6 -12 4 -23 8 -10 36 -59 61
-110 l47 -94 -26 -36 -27 -37 26 28 c14 15 29 27 33 27 4 0 23 -25 40 -54 36
-58 123 -160 131 -152 2 3 -13 25 -34 49 -42 48 -114 164 -114 184 0 16 127
155 174 191 19 15 35 30 36 35 1 20 -27 0 -91 -65z"/>
<path d="M55 1129 c-4 -5 -4 -21 -1 -34 3 -13 2 -27 -4 -30 -19 -11 -10 -45
14 -56 45 -21 87 26 54 59 -8 8 -8 15 2 27 10 12 10 18 0 30 -14 17 -56 20
-65 4z m55 -18 c0 -27 -19 -36 -37 -18 -18 18 -9 37 18 37 12 0 19 -7 19 -19z
m3 -53 c6 -18 -11 -48 -27 -48 -20 0 -37 25 -30 44 7 19 50 22 57 4z"/>
<path d="M843 1075 c0 -38 2 -53 4 -32 2 20 2 52 0 70 -2 17 -4 1 -4 -38z"/>
<path d="M922 1128 c-26 -26 -6 -69 32 -67 19 0 19 1 -3 10 -19 7 -22 15 -19
39 3 17 4 30 3 30 0 0 -6 -5 -13 -12z"/>
<path d="M977 1125 c15 -29 7 -87 -13 -102 -10 -7 -13 -13 -7 -13 38 0 59 94
26 121 -15 13 -15 12 -6 -6z"/>
<path d="M1696 1132 c-2 -4 7 -8 22 -7 41 0 39 -29 -3 -70 -38 -36 -39 -56 -2
-54 17 1 18 2 5 6 -26 6 -22 19 12 45 35 26 46 53 30 73 -13 16 -56 20 -64 7z"/>
<path d="M1811 1126 c-7 -8 -11 -36 -9 -62 2 -38 8 -51 25 -60 18 -8 20 -13
10 -23 -7 -7 14 -1 46 13 32 15 70 26 84 26 20 0 24 3 16 11 -11 11 -26 8 -84
-16 -14 -5 -16 0 -12 38 3 24 0 54 -6 66 -13 24 -53 28 -70 7z m57 -54 c2 -42
0 -54 -14 -59 -34 -13 -57 54 -33 98 20 38 44 19 47 -39z"/>
<path d="M2075 1041 c-11 -4 18 -6 64 -3 115 7 182 -10 231 -56 42 -41 57 -88
45 -148 -11 -59 -38 -77 -171 -112 -175 -46 -229 -55 -320 -49 -66 4 -94 11
-150 38 -112 56 -128 99 -62 176 29 35 28 34 -15 -7 -37 -34 -47 -51 -47 -76
0 -61 83 -115 222 -143 70 -15 156 -4 332 39 199 50 226 71 226 171 0 78 -37
132 -112 164 -40 16 -206 20 -243 6z"/>
<path d="M1748 1003 c7 -3 16 -2 19 1 4 3 -2 6 -13 5 -11 0 -14 -3 -6 -6z"/>
<path d="M656 671 l-30 -31 27 0 c28 0 41 17 35 45 -2 13 -9 10 -32 -14z"/>
<path d="M1537 665 l-28 -25 30 0 c26 0 31 4 31 25 0 30 2 30 -33 0z"/>
<path d="M2428 659 c-24 -25 -23 -31 5 -27 14 2 23 11 25 26 4 27 -7 27 -30 1z"/>
<path d="M26 508 c-10 -39 -7 -45 24 -51 21 -5 30 -12 30 -26 0 -24 -25 -45
-45 -37 -8 3 -15 1 -15 -4 0 -18 46 -11 64 9 23 25 13 59 -20 67 -33 8 -29 45
6 55 24 7 23 7 -6 8 -25 1 -33 -4 -38 -21z"/>
<path d="M800 520 c-11 -7 -7 -9 15 -7 45 3 45 -31 0 -71 -50 -46 -47 -62 13
-60 43 1 44 2 10 5 -47 5 -48 20 -3 56 39 31 45 61 16 77 -24 12 -32 12 -51 0z"/>
<path d="M921 504 c-36 -46 -22 -124 22 -124 31 0 47 18 47 52 0 21 -6 29 -24
34 -14 3 -30 3 -35 -1 -13 -7 -14 14 -3 32 4 7 19 16 32 22 24 9 24 10 3 10
-12 1 -31 -11 -42 -25z m54 -65 c8 -26 -16 -54 -39 -46 -16 6 -22 48 -9 60 14
14 42 6 48 -14z"/>
<path d="M1697 513 c-3 -4 9 -8 26 -8 45 0 46 -26 3 -66 -50 -45 -47 -59 12
-57 l47 1 -45 6 -45 6 38 35 c49 44 49 83 0 88 -17 2 -33 -1 -36 -5z"/>
<path d="M1838 513 c38 -5 38 -7 11 -67 -11 -26 -18 -52 -16 -59 3 -7 8 -4 12
8 4 11 18 44 31 73 l23 52 -47 -2 c-37 -1 -40 -2 -14 -5z"/>
<path d="M632 34 l-34 -34 36 0 c34 0 36 1 36 35 0 19 -1 34 -2 34 -2 -1 -18
-17 -36 -35z"/>
<path d="M1554 45 c-4 -9 -18 -22 -33 -30 l-26 -14 38 -1 c35 0 37 2 37 30 0
33 -7 39 -16 15z"/>
<path d="M2450 25 l-23 -25 26 0 c22 0 27 5 27 25 0 14 -1 25 -3 25 -2 0 -14
-11 -27 -25z"/>
</g>
</svg>
